SplineFontDB: 3.0
FontName: Oxygen-Medium
FullName: Oxygen Medium
FamilyName: Oxygen Medium
Weight: Book
Copyright: Copyright (c) 2011-12 by vernon adams. All rights reserved.
Version: webfont 0.2.2
ItalicAngle: 0
UnderlinePosition: 0
UnderlineWidth: 0
Ascent: 1638
Descent: 410
sfntRevision: 0x00003333
LayerCount: 2
Layer: 0 1 "Back"  1
Layer: 1 1 "Fore"  0
NeedsXUIDChange: 1
XUID: [1021 14 500265001 14409114]
FSType: 8
OS2Version: 1
OS2_WeightWidthSlopeOnly: 0
OS2_UseTypoMetrics: 1
CreationTime: 1336133100
ModificationTime: 1336135698
PfmFamily: 17
TTFWeight: 400
TTFWidth: 5
LineGap: 0
VLineGap: 0
Panose: 2 0 6 3 0 0 0 0 0 0
OS2TypoAscent: 263
OS2TypoAOffset: 1
OS2TypoDescent: -73
OS2TypoDOffset: 1
OS2TypoLinegap: 0
OS2WinAscent: -301
OS2WinAOffset: 1
OS2WinDescent: -181
OS2WinDOffset: 1
HheadAscent: -301
HheadAOffset: 1
HheadDescent: 181
HheadDOffset: 1
OS2SubXSize: 0
OS2SubYSize: 0
OS2SubXOff: 0
OS2SubYOff: 0
OS2SupXSize: 0
OS2SupYSize: 0
OS2SupXOff: 0
OS2SupYOff: 0
OS2StrikeYSize: 0
OS2StrikeYPos: 0
OS2Vendor: 'newt'
OS2CodePages: 00000091.00000000
OS2UnicodeRanges: a00000ef.4000204b.00000000.00000000
Lookup: 4 0 1 "'liga' Standard Ligatures lookup 0"  {"'liga' Standard Ligatures lookup 0 subtable"  } ['liga' ('DFLT' <'dflt' > 'grek' <'dflt' > 'latn' <'dflt' > ) ]
Lookup: 258 0 0 "'kern' Horizontal Kerning in Latin lookup 0"  {"'kern' Horizontal Kerning in Latin lookup 0 per glyph data 0"  "'kern' Horizontal Kerning in Latin lookup 0 kerning class 1"  } ['kern' ('DFLT' <'dflt' > 'latn' <'dflt' > ) ]
MarkAttachClasses: 1
DEI: 91125
KernClass2: 29 24 "'kern' Horizontal Kerning in Latin lookup 0 kerning class 1" 
 81 A Agrave Aacute Acircumflex Atilde Adieresis Aring Amacron Abreve Aogonek uni0202
 1 B
 75 D O Q Eth Ograve Oacute Ocircumflex Otilde Odieresis Oslash uni020C uni020E
 1 F
 1 K
 1 L
 1 P
 44 R Racute Rcommaaccent Rcaron uni0210 uni0212
 22 T uni021A Tcommaaccent
 45 U Ugrave Uacute Ucircumflex Udieresis uni0216
 1 V
 1 W
 18 Y Yacute Ydieresis
 1 a

StartChar: .notdef
Encoding: 65536 -1 0
Width: 748
Flags: HW
LayerCount: 2
Fore
SplineSet
136 68 m 1,0,-1
 544 68 l 1,1,-1
 544 1297 l 1,2,-1
 136 1297 l 1,3,-1
 136 68 l 1,0,-1
68 0 m 1,4,-1
 68 1365 l 1,5,-1
 612 1365 l 1,6,-1
 612 0 l 1,7,-1
 68 0 l 1,4,-1
EndSplineSet
EndChar

StartChar: exclam
Encoding: 33 33 4
Width: 511
GlyphClass: 2
Flags: HW
LayerCount: 2
Fore
SplineSet
222 443 m 1,0,-1
 148 1251 l 1,1,-1
 148 1475 l 1,2,-1
 368 1475 l 1,3,-1
 368 1251 l 1,4,-1
 294 443 l 1,5,-1
 222 443 l 1,0,-1
256 -15 m 128,-1,7
 192 -15 192 -15 151.5 27.5 c 128,-1,8
 111 70 111 70 111 128 c 128,-1,9
 111 186 111 186 151.5 229 c 128,-1,10
 192 272 192 272 256 272 c 128,-1,11
 320 272 320 272 359.5 229.5 c 128,-1,12
 399 187 399 187 399 128 c 128,-1,13
 399 69 399 69 359.5 27 c 128,-1,6
 320 -15 320 -15 256 -15 c 128,-1,7
EndSplineSet
EndChar

StartChar: quotedbl
Encoding: 34 34 5
Width: 750
GlyphClass: 2
Flags: HW
LayerCount: 2
Fore
SplineSet
151 983 m 1,0,-1
 122 1489 l 1,1,-1
 313 1489 l 1,2,-1
 283 983 l 1,3,-1
 151 983 l 1,0,-1
468 983 m 1,4,-1
 441 1489 l 1,5,-1
 630 1489 l 1,6,-1
 600 983 l 1,7,-1
 468 983 l 1,4,-1
EndSplineSet
EndChar

StartChar: numbersign
Encoding: 35 35 6
Width: 1165
GlyphClass: 2
Flags: HW
LayerCount: 2
Fore
SplineSet
183 -19 m 1,0,-1
 258 407 l 1,1,-1
 70 407 l 1,2,-1
 80 561 l 1,3,-1
 286 561 l 1,4,-1
 344 913 l 1,5,-1
 148 913 l 1,6,-1
 156 1067 l 1,7,-1
 372 1067 l 1,8,-1
 454 1460 l 1,9,-1
 630 1460 l 1,10,-1
 552 1067 l 1,11,-1
 764 1067 l 1,12,-1
 837 1460 l 1,13,-1
 998 1460 l 1,14,-1
 928 1067 l 1,15,-1
 1089 1067 l 1,16,-1
 1076 914 l 1,17,-1
 899 914 l 1,18,-1
 836 561 l 1,19,-1
 1009 561 l 1,20,-1
 999 407 l 1,21,-1
 811 407 l 1,22,-1
 728 -19 l 1,23,-1
 553 -19 l 1,24,-1
 635 407 l 1,25,-1
 424 407 l 1,26,-1
 344 -19 l 1,27,-1
 183 -19 l 1,0,-1
452 561 m 1,28,-1
 665 561 l 1,29,-1
 735 914 l 1,30,-1
 522 914 l 1,31,-1
 452 561 l 1,28,-1
EndSplineSet
EndChar

StartChar: dollar
Encoding: 36 36 7
Width: 1216
GlyphClass: 2
Flags: HW
LayerCount: 2
Fore
SplineSet
568 -204 m 1,0,-1
 567 -21 l 1,1,2
 289 -14 289 -14 94 101 c 1,3,-1
 153 283 l 1,4,5
 353 179 353 179 568 170 c 1,6,-1
 568 671 l 1,7,8
 562 674 562 674 524 684 c 0,9,10
 437 708 437 708 413 716 c 1,11,12
 98 812 98 812 98 1091 c 0,13,14
 98 1282 98 1282 224 1387 c 128,-1,15
 350 1492 350 1492 568 1505 c 1,16,-1
 568 1666 l 1,17,-1
 665 1666 l 1,18,-1
 665 1506 l 1,19,20
 910 1499 910 1499 1081 1399 c 1,21,-1
 1014 1227 l 1,22,23
 846 1309 846 1309 665 1317 c 1,24,-1
 665 871 l 1,25,26
 670 869 670 869 712 858 c 0,27,28
 943 797 943 797 1036 696.5 c 128,-1,29
 1129 596 1129 596 1129 408.5 c 128,-1,30
 1129 221 1129 221 1005 108.5 c 128,-1,31
 881 -4 881 -4 665 -19 c 1,32,-1
 665 -204 l 1,33,-1
 568 -204 l 1,0,-1
568 899 m 1,34,-1
 568 1314 l 1,35,36
 452 1304 452 1304 393 1253 c 128,-1,37
 334 1202 334 1202 333 1103 c 1,38,39
 333 963 333 963 500 918 c 0,40,41
 502 917 502 917 533 909 c 128,-1,42
 564 901 564 901 568 899 c 1,34,-1
665 173 m 1,43,44
 899 196 899 196 899 420 c 0,45,46
 899 500 899 500 854 552 c 0,47,48
 805 608 805 608 685 639 c 0,49,50
 666 644 666 644 665 644 c 1,51,-1
 665 173 l 1,43,44
EndSplineSet
EndChar

StartChar: percent
Encoding: 37 37 8
Width: 1830
GlyphClass: 2
Flags: HW
LayerCount: 2
Fore
SplineSet
278.5 907 m 128,-1,1
 325 840 325 840 413.5 840 c 128,-1,2
 502 840 502 840 549 909 c 128,-1,3
 596 978 596 978 596 1086.5 c 128,-1,4
 596 1195 596 1195 548.5 1266.5 c 128,-1,5
 501 1338 501 1338 413.5 1338 c 128,-1,6
 326 1338 326 1338 279 1265.5 c 128,-1,7
 232 1193 232 1193 232 1083.5 c 128,-1,0
 232 974 232 974 278.5 907 c 128,-1,1
662.5 809.5 m 128,-1,9
 568 701 568 701 412.5 701 c 128,-1,10
 257 701 257 701 167 808.5 c 128,-1,11
 77 916 77 916 77 1084 c 128,-1,12
 77 1252 77 1252 169 1363 c 128,-1,13
 261 1474 261 1474 416.5 1474 c 128,-1,14
 572 1474 572 1474 664.5 1364.5 c 128,-1,15
 757 1255 757 1255 757 1086.5 c 128,-1,8
 757 918 757 918 662.5 809.5 c 128,-1,9
351 -19 m 1,16,-1
 1202 1456 l 1,17,-1
 1396 1455 l 1,18,-1
 527 -19 l 1,19,-1
 351 -19 l 1,16,-1
1404 121 m 128,-1,21
 1502 121 1502 121 1554 193 c 128,-1,22
 1606 265 1606 265 1606 373.5 c 128,-1,23
 1606 482 1606 482 1552.5 552.5 c 128,-1,24
 1499 623 1499 623 1398 623 c 128,-1,25
 1297 623 1297 623 1249 552.5 c 128,-1,26
 1201 482 1201 482 1201 371.5 c 128,-1,27
 1201 261 1201 261 1253.5 191 c 128,-1,20
 1306 121 1306 121 1404 121 c 128,-1,21
1665.5 94 m 128,-1,29
 1570 -16 1570 -16 1401.5 -16 c 128,-1,30
 1233 -16 1233 -16 1137 93 c 128,-1,31
 1041 202 1041 202 1041 375.5 c 128,-1,32
 1041 549 1041 549 1130.5 654.5 c 128,-1,33
 1220 760 1220 760 1396.5 760 c 128,-1,34
 1573 760 1573 760 1667 652.5 c 128,-1,35
 1761 545 1761 545 1761 374.5 c 128,-1,28
 1761 204 1761 204 1665.5 94 c 128,-1,29
EndSplineSet
EndChar

StartChar: ampersand
Encoding: 38 38 9
Width: 1455
GlyphClass: 2
Flags: HW
LayerCount: 2
Fore
SplineSet
1390 39 m 1,0,-1
 1205 -13 l 1,1,-1
 1066 137 l 1,2,3
 858 -23 858 -23 610 -23 c 128,-1,4
 362 -23 362 -23 220.5 85.5 c 128,-1,5
 79 194 79 194 79 400 c 0,6,7
 78 557 78 557 178 664 c 0,8,9
 264 756 264 756 416 835 c 1,10,11
 283 983 283 983 259 1068 c 0,12,13
 247 1110 247 1110 247 1157 c 0,14,15
 247 1313 247 1313 355 1400 c 128,-1,16
 463 1487 463 1487 633 1487 c 0,17,18
 786 1486 786 1486 902 1412 c 0,19,20
 958 1376 958 1376 992 1314 c 128,-1,21
 1026 1252 1026 1252 1026 1180 c 128,-1,22
 1026 1108 1026 1108 999.5 1050 c 0,23,24
 972 992 972 992 924 946 c 0,25,26
 836 862 836 862 696 794 c 1,27,-1
 1070 390 l 1,28,29
 1150 477 1150 477 1218 618 c 1,30,-1
 1366 514 l 1,31,32
 1294 369 1294 369 1195 256 c 1,33,-1
 1390 39 l 1,0,-1
606 151 m 0,34,35
 792 151 792 151 939 268 c 1,36,37
 697 526 697 526 525 712 c 1,38,39
 408 650 408 650 346.5 583.5 c 128,-1,40
 285 517 285 517 285 403 c 128,-1,41
 285 289 285 289 372.5 220 c 128,-1,42
 460 151 460 151 606 151 c 0,34,35
587 918 m 1,43,44
 759 1006 759 1006 798 1086 c 0,45,46
 816 1124 816 1124 816 1168 c 0,47,48
 816 1246 816 1246 766 1287.5 c 128,-1,49
 716 1329 716 1329 634.5 1329 c 128,-1,50
 553 1329 553 1329 503 1286 c 128,-1,51
 453 1243 453 1243 453 1169.5 c 128,-1,52
 453 1096 453 1096 487 1039.5 c 128,-1,53
 521 983 521 983 587 918 c 1,43,44
EndSplineSet
EndChar

StartChar: quotesingle
Encoding: 39 39 10
Width: 432
GlyphClass: 2
Flags: HW
LayerCount: 2
Fore
SplineSet
144 950 m 1,0,-1
 115 1474 l 1,1,-1
 302 1474 l 1,2,-1
 278 950 l 1,3,-1
 144 950 l 1,0,-1
EndSplineSet
EndChar

StartChar: parenleft
Encoding: 40 40 11
Width: 631
GlyphClass: 2
Flags: HW
LayerCount: 2
Fore
SplineSet
377 -273 m 1,0,1
 97 109 97 109 97 599 c 128,-1,2
 97 1089 97 1089 376 1487 c 1,3,-1
 574 1487 l 1,4,5
 462 1318 462 1318 386 1079 c 128,-1,6
 310 840 310 840 310 604 c 128,-1,7
 310 368 310 368 387 128 c 128,-1,8
 464 -112 464 -112 573 -273 c 1,9,-1
 377 -273 l 1,0,1
EndSplineSet
EndChar

StartChar: parenright
Encoding: 41 41 12
Width: 631
GlyphClass: 2
Flags: HW
LayerCount: 2
Fore
SplineSet
534 598 m 128,-1,1
 534 111 534 111 254 -273 c 1,2,-1
 58 -273 l 1,3,4
 167 -111 167 -111 244 128.5 c 128,-1,5
 321 368 321 368 321 604 c 128,-1,6
 321 840 321 840 245 1079 c 128,-1,7
 169 1318 169 1318 57 1487 c 1,8,-1
 255 1487 l 1,9,0
 534 1085 534 1085 534 598 c 128,-1,1
EndSplineSet
EndChar

StartChar: asterisk
Encoding: 42 42 13
Width: 1104
GlyphClass: 2
Flags: HW
LayerCount: 2
Fore
SplineSet
918 675 m 1,0,-1
 739 571 l 1,1,-1
 548 912 l 1,2,-1
 367 571 l 1,3,-1
 185 675 l 1,4,-1
 430 994 l 1,5,-1
 79 1074 l 1,6,-1
 136 1264 l 1,7,-1
 482 1123 l 1,8,-1
 446 1512 l 1,9,-1
 655 1512 l 1,10,-1
 620 1123 l 1,11,-1
 968 1262 l 1,12,-1
 1024 1071 l 1,13,-1
 670 994 l 1,14,-1
 918 675 l 1,0,-1
EndSplineSet
EndChar

StartChar: plus
Encoding: 43 43 14
Width: 1155
GlyphClass: 2
Flags: HW
LayerCount: 2
Fore
SplineSet
495 149 m 1,0,-1
 495 567 l 1,1,-1
 92 567 l 1,2,-1
 92 733 l 1,3,-1
 496 733 l 1,4,-1
 496 1148 l 1,5,-1
 666 1148 l 1,6,-1
 666 733 l 1,7,-1
 1065 733 l 1,8,-1
 1065 567 l 1,9,-1
 665 567 l 1,10,-1
 665 149 l 1,11,-1
 495 149 l 1,0,-1
EndSplineSet
EndChar

StartChar: comma
Encoding: 44 44 15
Width: 507
GlyphClass: 2
Flags: HW
LayerCount: 2
Fore
SplineSet
85 -281 m 1,0,1
 138 45 138 45 159 233 c 1,2,-1
 382 233 l 1,3,-1
 380 186 l 1,4,5
 320 -35 320 -35 229 -281 c 1,6,-1
 85 -281 l 1,0,1
EndSplineSet
EndChar

StartChar: hyphen
Encoding: 45 45 16
Width: 674
GlyphClass: 2
Flags: HW
LayerCount: 2
Fore
SplineSet
78 469 m 1,0,-1
 78 646 l 1,1,-1
 597 646 l 1,2,-1
 597 469 l 1,3,-1
 78 469 l 1,0,-1
EndSplineSet
EndChar

StartChar: period
Encoding: 46 46 17
Width: 483
GlyphClass: 2
Flags: HW
LayerCount: 2
Fore
SplineSet
252 -15 m 128,-1,1
 188 -15 188 -15 147.5 27.5 c 128,-1,2
 107 70 107 70 107 128 c 128,-1,3
 107 186 107 186 147.5 229 c 128,-1,4
 188 272 188 272 252 272 c 128,-1,5
 316 272 316 272 356 229.5 c 0,6,7
 396 186 396 186 396 128 c 128,-1,8
 396 70 396 70 356 27.5 c 128,-1,0
 316 -15 316 -15 252 -15 c 128,-1,1
EndSplineSet
EndChar

StartChar: slash
Encoding: 47 47 18
Width: 950
GlyphClass: 2
Flags: HW
LayerCount: 2
Fore
SplineSet
51 -202 m 1,0,-1
 698 1479 l 1,1,-1
 882 1479 l 1,2,-1
 232 -202 l 1,3,-1
 51 -202 l 1,0,-1
EndSplineSet
EndChar

StartChar: zero
Encoding: 48 48 19
Width: 1270
GlyphClass: 2
Flags: HW
LayerCount: 2
Fore
SplineSet
636 160 m 1,0,1
 714 160 714 160 773.5 206.5 c 0,2,3
 833 254 833 254 867 336 c 0,4,5
 935 501 935 501 935 748 c 0,6,7
 936 994 936 994 868 1152 c 0,8,9
 834 1232 834 1232 774.5 1278 c 128,-1,10
 715 1324 715 1324 637 1324 c 128,-1,11
 559 1324 559 1324 500 1279 c 0,12,13
 440 1234 440 1234 406 1153 c 0,14,15
 338 992 338 992 338 750 c 0,16,17
 338 498 338 498 406 336 c 0,18,19
 520 189 520 189 636 160 c 1,0,1
623 -22 m 0,20,21
 496 -22 496 -22 390.5 38 c 0,22,23
 286 98 286 98 224 204 c 0,24,25
 104 413 104 413 103 741 c 0,26,27
 104 1074 104 1074 228 1284 c 0,28,29
 290 1390 290 1390 394.5 1448 c 128,-1,30
 499 1506 499 1506 623.5 1506 c 128,-1,31
 748 1506 748 1506 837 1467.5 c 128,-1,32
 926 1429 926 1429 987.5 1360.5 c 128,-1,33
 1049 1292 1049 1292 1090 1195 c 0,34,35
 1168 1010 1168 1010 1168 741 c 0,36,37
 1168 327 1168 327 992 126 c 0,38,39
 862 -22 862 -22 623 -22 c 0,20,21
EndSplineSet
EndChar

StartChar: one
Encoding: 49 49 20
Width: 658
GlyphClass: 2
Flags: HW
LayerCount: 2
Fore
SplineSet
40 1336 m 1,0,1
 257 1431 257 1431 320 1476 c 1,2,-1
 512 1476 l 1,3,-1
 512 0 l 1,4,-1
 294 0 l 1,5,-1
 294 1262 l 1,6,7
 262 1241 262 1241 171 1202 c 128,-1,8
 80 1163 80 1163 40 1150 c 1,9,-1
 40 1336 l 1,0,1
EndSplineSet
EndChar

StartChar: two
Encoding: 50 50 21
Width: 1082
GlyphClass: 2
Flags: HW
LayerCount: 2
Fore
SplineSet
98 0 m 1,0,-1
 84 192 l 1,1,-1
 572 739 l 1,2,3
 675 852 675 852 713 930 c 128,-1,4
 751 1008 751 1008 751 1102 c 0,5,6
 751 1196 751 1196 685.5 1258.5 c 128,-1,7
 620 1321 620 1321 516 1321 c 0,8,9
 412 1321 412 1321 322.5 1288 c 128,-1,10
 233 1255 233 1255 174 1199 c 1,11,-1
 107 1375 l 1,12,13
 252 1506 252 1506 521 1506 c 0,14,15
 731 1506 731 1506 857.5 1396.5 c 128,-1,16
 984 1287 984 1287 984 1095 c 0,17,18
 984 967 984 967 917 843.5 c 128,-1,19
 850 720 850 720 712 574 c 2,20,-1
 340 177 l 1,21,-1
 977 177 l 1,22,-1
 963 0 l 1,23,-1
 98 0 l 1,0,-1
EndSplineSet
EndChar

StartChar: three
Encoding: 51 51 22
Width: 1089
GlyphClass: 2
Flags: HW
LayerCount: 2
Fore
SplineSet
360 690 m 1,0,-1
 301 691 l 1,1,-1
 301 868 l 1,2,-1
 354 868 l 1,3,4
 582 870 582 870 666 936 c 0,5,6
 740 993 740 993 740 1099 c 128,-1,7
 740 1205 740 1205 673 1264.5 c 128,-1,8
 606 1324 606 1324 481 1324 c 0,9,10
 287 1324 287 1324 146 1224 c 1,11,-1
 82 1394 l 1,12,13
 248 1506 248 1506 512 1506 c 0,14,15
 638 1506 638 1506 740.5 1460 c 128,-1,16
 843 1414 843 1414 904 1326.5 c 128,-1,17
 965 1239 965 1239 965 1117 c 128,-1,18
 965 995 965 995 900.5 908 c 128,-1,19
 836 821 836 821 715 782 c 1,20,21
 851 754 851 754 927.5 652 c 128,-1,22
 1004 550 1004 550 1004 411 c 128,-1,23
 1004 272 1004 272 936 174 c 0,24,25
 799 -22 799 -22 490 -22 c 0,26,27
 360 -22 360 -22 250.5 12 c 128,-1,28
 141 46 141 46 82 98 c 1,29,-1
 147 268 l 1,30,31
 206 220 206 220 297 190 c 128,-1,32
 388 160 388 160 505 160 c 128,-1,33
 622 160 622 160 701 228 c 128,-1,34
 780 296 780 296 780 412 c 0,35,36
 780 602 780 602 614 656 c 0,37,38
 522 686 522 686 360 690 c 1,0,-1
EndSplineSet
EndChar

StartChar: four
Encoding: 52 52 23
Width: 1234
GlyphClass: 2
Flags: HW
LayerCount: 2
Fore
SplineSet
767 0 m 1,0,-1
 767 346 l 1,1,-1
 99 346 l 1,2,-1
 99 513 l 1,3,-1
 722 1475 l 1,4,-1
 988 1475 l 1,5,-1
 988 520 l 1,6,-1
 1170 520 l 1,7,-1
 1156 346 l 1,8,-1
 988 346 l 1,9,-1
 988 0 l 1,10,-1
 767 0 l 1,0,-1
320 519 m 1,11,-1
 767 519 l 1,12,-1
 767 1233 l 1,13,-1
 320 519 l 1,11,-1
EndSplineSet
EndChar

StartChar: five
Encoding: 53 53 24
Width: 1156
GlyphClass: 2
Flags: HW
LayerCount: 2
Fore
SplineSet
533 -22 m 0,0,1
 400 -22 400 -22 282 24 c 128,-1,2
 164 70 164 70 112 117 c 1,3,-1
 185 283 l 1,4,5
 256 227 256 227 350.5 196.5 c 128,-1,6
 445 166 445 166 521 166 c 0,7,8
 672 166 672 166 755 251 c 128,-1,9
 838 336 838 336 838 467.5 c 128,-1,10
 838 599 838 599 765.5 676 c 128,-1,11
 693 753 693 753 564 753 c 128,-1,12
 435 753 435 753 339 650 c 1,13,-1
 181 677 l 1,14,-1
 220 1475 l 1,15,-1
 1002 1475 l 1,16,-1
 988 1289 l 1,17,-1
 410 1289 l 1,18,19
 396 895 396 895 396 877 c 1,20,21
 495 935 495 935 608 935 c 0,22,23
 817 935 817 935 938.5 806 c 128,-1,24
 1060 677 1060 677 1060 462.5 c 128,-1,25
 1060 248 1060 248 920 113 c 128,-1,26
 780 -22 780 -22 533 -22 c 0,0,1
EndSplineSet
EndChar

StartChar: six
Encoding: 54 54 25
Width: 1202
GlyphClass: 2
Flags: HW
LayerCount: 2
Fore
SplineSet
986.5 110.5 m 128,-1,1
 843 -22 843 -22 607.5 -22 c 128,-1,2
 372 -22 372 -22 227 115.5 c 128,-1,3
 82 253 82 253 82 467 c 0,4,5
 82 614 82 614 137 731 c 128,-1,6
 192 848 192 848 319 1010 c 1,7,-1
 694 1477 l 1,8,-1
 968 1477 l 1,9,-1
 481 879 l 1,10,11
 574 920 574 920 650 920 c 0,12,13
 855 920 855 920 992.5 788.5 c 128,-1,14
 1130 657 1130 657 1130 450 c 128,-1,0
 1130 243 1130 243 986.5 110.5 c 128,-1,1
390 239 m 128,-1,16
 465 156 465 156 603 156 c 128,-1,17
 741 156 741 156 820.5 238.5 c 128,-1,18
 900 321 900 321 900 453 c 128,-1,19
 900 585 900 585 823 667 c 128,-1,20
 746 749 746 749 601 749 c 128,-1,21
 456 749 456 749 385.5 667.5 c 128,-1,22
 315 586 315 586 315 454 c 128,-1,15
 315 322 315 322 390 239 c 128,-1,16
EndSplineSet
EndChar

StartChar: seven
Encoding: 55 55 26
Width: 1044
GlyphClass: 2
Flags: HW
LayerCount: 2
Fore
SplineSet
248 0 m 1,0,-1
 723 1296 l 1,1,-1
 86 1296 l 1,2,-1
 93 1476 l 1,3,-1
 977 1476 l 1,4,-1
 977 1329 l 1,5,-1
 476 0 l 1,6,-1
 248 0 l 1,0,-1
EndSplineSet
EndChar

StartChar: eight
Encoding: 56 56 27
Width: 1165
GlyphClass: 2
Flags: HW
LayerCount: 2
Fore
SplineSet
836.5 23.5 m 128,-1,1
 725 -22 725 -22 585.5 -22 c 128,-1,2
 446 -22 446 -22 333.5 23.5 c 128,-1,3
 221 69 221 69 151.5 163.5 c 128,-1,4
 82 258 82 258 82 392 c 128,-1,5
 82 526 82 526 157 625.5 c 128,-1,6
 232 725 232 725 365 777 c 1,7,8
 111 882 111 882 111 1128 c 0,9,10
 111 1307 111 1307 244 1406.5 c 128,-1,11
 377 1506 377 1506 585 1506 c 0,12,13
 870 1506 870 1506 994 1334 c 0,14,15
 1056 1248 1056 1248 1056 1128 c 0,16,17
 1056 882 1056 882 822 777 c 1,18,19
 946 725 946 725 1015.5 625 c 128,-1,20
 1085 525 1085 525 1085 391 c 128,-1,21
 1085 257 1085 257 1016.5 163 c 128,-1,0
 948 69 948 69 836.5 23.5 c 128,-1,1
374.5 212.5 m 128,-1,23
 454 146 454 146 585.5 146 c 128,-1,24
 717 146 717 146 795 212.5 c 128,-1,25
 873 279 873 279 873 394 c 128,-1,26
 873 509 873 509 794 584 c 128,-1,27
 715 659 715 659 586 690 c 1,28,29
 453 658 453 658 374 583.5 c 128,-1,30
 295 509 295 509 295 394 c 128,-1,22
 295 279 295 279 374.5 212.5 c 128,-1,23
586 843 m 1,31,32
 851 904 851 904 851 1129 c 0,33,34
 851 1226 851 1226 775 1282.5 c 128,-1,35
 699 1339 699 1339 585.5 1339 c 128,-1,36
 472 1339 472 1339 394.5 1282 c 128,-1,37
 317 1225 317 1225 317 1120.5 c 128,-1,38
 317 1016 317 1016 387 944 c 128,-1,39
 457 872 457 872 586 843 c 1,31,32
EndSplineSet
EndChar

StartChar: nine
Encoding: 57 57 28
Width: 1192
GlyphClass: 2
Flags: HW
LayerCount: 2
Fore
SplineSet
246 0 m 1,0,-1
 731 615 l 1,1,2
 641 575 641 575 562 575 c 0,3,4
 357 575 357 575 220.5 703 c 128,-1,5
 84 831 84 831 84 1037.5 c 128,-1,6
 84 1244 84 1244 228.5 1375 c 128,-1,7
 373 1506 373 1506 608.5 1506 c 128,-1,8
 844 1506 844 1506 987 1372 c 128,-1,9
 1130 1238 1130 1238 1130 1024 c 0,10,11
 1130 890 1130 890 1081.5 780.5 c 128,-1,12
 1033 671 1033 671 928 529 c 1,13,-1
 519 0 l 1,14,-1
 246 0 l 1,0,-1
389.5 822 m 128,-1,16
 466 743 466 743 611.5 743 c 128,-1,17
 757 743 757 743 827.5 824.5 c 128,-1,18
 898 906 898 906 898 1038 c 128,-1,19
 898 1170 898 1170 825 1249.5 c 128,-1,20
 752 1329 752 1329 613.5 1329 c 128,-1,21
 475 1329 475 1329 394 1246.5 c 128,-1,22
 313 1164 313 1164 313 1032.5 c 128,-1,15
 313 901 313 901 389.5 822 c 128,-1,16
EndSplineSet
EndChar

StartChar: colon
Encoding: 58 58 29
Width: 475
GlyphClass: 2
Flags: HW
LayerCount: 2
Fore
SplineSet
121 -15 m 1,0,-1
 121 235 l 1,1,-1
 359 235 l 1,2,-1
 359 -15 l 1,3,-1
 121 -15 l 1,0,-1
121 865 m 1,4,-1
 121 1114 l 1,5,-1
 359 1114 l 1,6,-1
 359 865 l 1,7,-1
 121 865 l 1,4,-1
EndSplineSet
EndChar

StartChar: semicolon
Encoding: 59 59 30
Width: 480
GlyphClass: 2
Flags: HW
LayerCount: 2
Fore
SplineSet
121 -316 m 1,0,-1
 177 223 l 1,1,-1
 383 223 l 1,2,-1
 258 -316 l 1,3,-1
 121 -316 l 1,0,-1
147 865 m 1,4,-1
 147 1114 l 1,5,-1
 385 1114 l 1,6,-1
 385 865 l 1,7,-1
 147 865 l 1,4,-1
EndSplineSet
EndChar

StartChar: less
Encoding: 60 60 31
Width: 1186
GlyphClass: 2
Flags: HW
LayerCount: 2
Fore
SplineSet
1072 173 m 1,0,-1
 109 626 l 1,1,-1
 109 738 l 1,2,-1
 1073 1225 l 1,3,-1
 1073 1041 l 1,4,-1
 336 687 l 1,5,-1
 1072 356 l 1,6,-1
 1072 173 l 1,0,-1
EndSplineSet
EndChar

StartChar: equal
Encoding: 61 61 32
Width: 1214
GlyphClass: 2
Flags: HW
LayerCount: 2
Fore
SplineSet
111 366 m 1,0,-1
 111 535 l 1,1,-1
 1105 535 l 1,2,-1
 1105 366 l 1,3,-1
 111 366 l 1,0,-1
110 775 m 1,4,-1
 110 945 l 1,5,-1
 1104 945 l 1,6,-1
 1104 775 l 1,7,-1
 110 775 l 1,4,-1
EndSplineSet
EndChar

StartChar: greater
Encoding: 62 62 33
Width: 1187
GlyphClass: 2
Flags: HW
LayerCount: 2
Fore
SplineSet
117 176 m 1,0,-1
 117 360 l 1,1,-1
 853 687 l 1,2,-1
 118 1046 l 1,3,-1
 118 1228 l 1,4,-1
 1081 737 l 1,5,-1
 1081 626 l 1,6,-1
 117 176 l 1,0,-1
EndSplineSet
EndChar

StartChar: question
Encoding: 63 63 34
Width: 877
GlyphClass: 2
Flags: HW
LayerCount: 2
Fore
SplineSet
320 442 m 1,0,1
 331 580 331 580 429 750 c 0,2,3
 470 822 470 822 510 890 c 0,4,5
 604 1054 604 1054 604 1146 c 0,6,7
 604 1238 604 1238 546 1286 c 0,8,9
 489 1334 489 1334 371 1334.5 c 128,-1,10
 253 1335 253 1335 120 1252 c 1,11,-1
 61 1404 l 1,12,13
 204 1505 204 1505 416 1505 c 0,14,15
 634 1506 634 1506 738 1356 c 0,16,17
 792 1278 792 1278 792 1189 c 128,-1,18
 792 1100 792 1100 769 1030.5 c 128,-1,19
 746 961 746 961 704.5 894.5 c 128,-1,20
 663 828 663 828 618 765 c 0,21,22
 485 579 485 579 420 442 c 1,23,-1
 320 442 l 1,0,1
375 -15 m 128,-1,25
 311 -15 311 -15 271 27.5 c 128,-1,26
 231 70 231 70 231 128.5 c 128,-1,27
 231 187 231 187 271 229.5 c 128,-1,28
 311 272 311 272 375 272 c 128,-1,29
 439 272 439 272 479 229.5 c 128,-1,30
 519 187 519 187 519 128.5 c 128,-1,31
 519 70 519 70 479 27.5 c 128,-1,24
 439 -15 439 -15 375 -15 c 128,-1,25
EndSplineSet
EndChar

StartChar: at
Encoding: 64 64 35
Width: 1752
GlyphClass: 2
Flags: HW
LayerCount: 2
Fore
SplineSet
888 -171 m 0,0,1
 652 -171 652 -171 471 -76 c 128,-1,2
 290 19 290 19 189 198 c 128,-1,3
 88 377 88 377 88 612.5 c 128,-1,4
 88 848 88 848 194.5 1037 c 128,-1,5
 301 1226 301 1226 491.5 1334 c 128,-1,6
 682 1442 682 1442 906.5 1442 c 128,-1,7
 1131 1442 1131 1442 1300 1355.5 c 128,-1,8
 1469 1269 1469 1269 1567 1108 c 128,-1,9
 1665 947 1665 947 1665 740 c 0,10,11
 1665 623 1665 623 1628.5 521 c 0,12,13
 1592 418 1592 418 1532 350 c 0,14,15
 1405 204 1405 204 1238 204 c 0,16,17
 1155 204 1155 204 1103.5 253 c 128,-1,18
 1052 302 1052 302 1046 400 c 1,19,20
 1007 324 1007 324 937 270 c 128,-1,21
 867 216 867 216 783 216 c 0,22,23
 648 216 648 216 570.5 306.5 c 128,-1,24
 493 397 493 397 493 542.5 c 128,-1,25
 493 688 493 688 546.5 804.5 c 128,-1,26
 600 921 600 921 703.5 992 c 128,-1,27
 807 1063 807 1063 941.5 1063 c 128,-1,28
 1076 1063 1076 1063 1250 1003 c 1,29,30
 1240 938 1240 938 1215 806 c 0,31,32
 1164 538 1164 538 1164 463.5 c 128,-1,33
 1164 389 1164 389 1187 363 c 128,-1,34
 1210 337 1210 337 1267 337 c 128,-1,35
 1324 337 1324 337 1385.5 394.5 c 128,-1,36
 1447 452 1447 452 1484 546.5 c 128,-1,37
 1521 641 1521 641 1521 745 c 0,38,39
 1521 915 1521 915 1442.5 1043.5 c 128,-1,40
 1364 1172 1364 1172 1227 1239.5 c 128,-1,41
 1090 1307 1090 1307 938.5 1307 c 128,-1,42
 787 1307 787 1307 675.5 1267 c 128,-1,43
 564 1227 564 1227 485 1159 c 0,44,45
 406 1092 406 1092 350 1002 c 0,46,47
 238 825 238 825 238 617 c 128,-1,48
 238 409 238 409 324 260.5 c 128,-1,49
 410 112 410 112 555.5 38 c 128,-1,50
 701 -36 701 -36 888 -36 c 0,51,52
 1160 -36 1160 -36 1363 100 c 1,53,-1
 1409 -10 l 1,54,55
 1196 -171 1196 -171 888 -171 c 0,0,1
793 351 m 0,56,57
 988 351 988 351 1051 739 c 0,58,59
 1059 792 1059 792 1077 926 c 1,60,61
 1023 941 1023 941 942 941 c 0,62,63
 861 940 861 940 792 884 c 0,64,65
 654 771 654 771 654 554 c 0,66,67
 654 463 654 463 688.5 407 c 128,-1,68
 723 351 723 351 793 351 c 0,56,57
EndSplineSet
EndChar

StartChar: A
Encoding: 65 65 36
Width: 1333
GlyphClass: 2
Flags: HW
LayerCount: 2
Fore
SplineSet
0 0 m 1,0,-1
 552 1473 l 1,1,-1
 792 1473 l 1,2,-1
 1333 0 l 1,3,-1
 1101 0 l 1,4,-1
 943 440 l 1,5,-1
 394 440 l 1,6,-1
 234 0 l 1,7,-1
 0 0 l 1,0,-1
458 615 m 1,8,-1
 880 615 l 1,9,10
 686 1209 686 1209 673 1254 c 1,11,-1
 458 615 l 1,8,-1
EndSplineSet
EndChar

StartChar: B
Encoding: 66 66 37
Width: 1311
GlyphClass: 2
Flags: HW
LayerCount: 2
Fore
SplineSet
165 0 m 1,0,-1
 165 1471 l 1,1,-1
 607 1471 l 2,2,3
 895 1471 895 1471 1035.5 1385 c 128,-1,4
 1176 1299 1176 1299 1176 1105 c 0,5,6
 1176 928 1176 928 1048 834 c 0,7,8
 1004 802 1004 802 944 783 c 1,9,10
 1086 751 1086 751 1160 656 c 128,-1,11
 1234 561 1234 561 1234 423 c 0,12,13
 1234 219 1234 219 1094.5 109.5 c 128,-1,14
 955 0 955 0 696 0 c 2,15,-1
 165 0 l 1,0,-1
391 171 m 1,16,-1
 660 171 l 2,17,18
 1002 171 1002 171 1002 434 c 0,19,20
 1002 571 1002 571 913.5 628.5 c 128,-1,21
 825 686 825 686 637 686 c 2,22,-1
 391 686 l 1,23,-1
 391 171 l 1,16,-1
391 852 m 1,24,-1
 662 852 l 2,25,26
 806 852 806 852 879 903.5 c 128,-1,27
 952 955 952 955 952 1079 c 128,-1,28
 952 1203 952 1203 867 1250 c 128,-1,29
 782 1297 782 1297 598 1297 c 2,30,-1
 391 1297 l 1,31,-1
 391 852 l 1,24,-1
EndSplineSet
EndChar

StartChar: C
Encoding: 67 67 38
Width: 1296
GlyphClass: 2
Flags: HW
LayerCount: 2
Fore
SplineSet
801 -21 m 0,0,1
 475 -21 475 -21 290.5 184 c 0,2,3
 106 388 106 388 106 734 c 128,-1,4
 106 1080 106 1080 299.5 1287 c 128,-1,5
 493 1494 493 1494 816 1494 c 0,6,7
 1068 1494 1068 1494 1243 1379 c 1,8,-1
 1167 1204 l 1,9,10
 1000 1306 1000 1306 820 1306 c 0,11,12
 596 1306 596 1306 468.5 1148.5 c 128,-1,13
 341 991 341 991 341 731 c 128,-1,14
 341 471 341 471 464.5 319 c 128,-1,15
 588 167 588 167 822 167 c 0,16,17
 1001 167 1001 167 1181 258 c 1,18,-1
 1214 76 l 1,19,20
 1055 -21 1055 -21 801 -21 c 0,0,1
EndSplineSet
EndChar

StartChar: D
Encoding: 68 68 39
Width: 1508
GlyphClass: 2
Flags: HW
LayerCount: 2
Fore
SplineSet
392 187 m 1,0,-1
 616 187 l 2,1,2
 886 187 886 187 1027 325.5 c 128,-1,3
 1168 464 1168 464 1168 743 c 128,-1,4
 1168 1022 1168 1022 1021.5 1153 c 128,-1,5
 875 1284 875 1284 587 1284 c 2,6,-1
 392 1284 l 1,7,-1
 392 187 l 1,0,-1
166 0 m 1,8,-1
 166 1471 l 1,9,-1
 584 1471 l 2,10,11
 963 1471 963 1471 1179 1295 c 0,12,13
 1403 1112 1403 1112 1403 746.5 c 128,-1,14
 1403 381 1403 381 1193.5 190.5 c 128,-1,15
 984 0 984 0 610 0 c 2,16,-1
 166 0 l 1,8,-1
EndSplineSet
EndChar

StartChar: E
Encoding: 69 69 40
Width: 1148
GlyphClass: 2
Flags: HW
LayerCount: 2
Fore
SplineSet
165 0 m 1,0,-1
 165 1471 l 1,1,-1
 1035 1471 l 1,2,-1
 1026 1285 l 1,3,-1
 391 1285 l 1,4,-1
 391 858 l 1,5,-1
 994 858 l 1,6,-1
 994 673 l 1,7,-1
 391 673 l 1,8,-1
 391 187 l 1,9,-1
 1048 187 l 1,10,-1
 1039 0 l 1,11,-1
 165 0 l 1,0,-1
EndSplineSet
EndChar

StartChar: F
Encoding: 70 70 41
Width: 1075
GlyphClass: 2
Flags: HW
LayerCount: 2
Fore
SplineSet
165 0 m 1,0,-1
 165 1471 l 1,1,-1
 1011 1471 l 1,2,-1
 1003 1285 l 1,3,-1
 390 1285 l 1,4,-1
 390 822 l 1,5,-1
 973 822 l 1,6,-1
 973 639 l 1,7,-1
 390 639 l 1,8,-1
 390 0 l 1,9,-1
 165 0 l 1,0,-1
EndSplineSet
EndChar

StartChar: G
Encoding: 71 71 42
Width: 1464
GlyphClass: 2
Flags: HW
LayerCount: 2
Fore
SplineSet
1332 89 m 1,0,1
 1085 -21 1085 -21 838.5 -21 c 128,-1,2
 592 -21 592 -21 431 74 c 128,-1,3
 270 169 270 169 188 338.5 c 128,-1,4
 106 508 106 508 106 734 c 128,-1,5
 106 960 106 960 192.5 1130 c 128,-1,6
 279 1300 279 1300 448.5 1397 c 128,-1,7
 618 1494 618 1494 865 1494 c 128,-1,8
 1112 1494 1112 1494 1303 1379 c 1,9,-1
 1226 1204 l 1,10,11
 1041 1306 1041 1306 853 1306 c 0,12,13
 610 1306 610 1306 476 1150 c 0,14,15
 341 993 341 993 341 730 c 0,16,17
 341 470 341 470 467 319 c 0,18,19
 593 167 593 167 837 167 c 0,20,21
 984 167 984 167 1120 219 c 1,22,-1
 1120 597 l 1,23,-1
 794 597 l 1,24,-1
 797 782 l 1,25,-1
 1332 782 l 1,26,-1
 1332 89 l 1,0,1
EndSplineSet
EndChar

StartChar: H
Encoding: 72 72 43
Width: 1505
GlyphClass: 2
Flags: HW
LayerCount: 2
Fore
SplineSet
165 0 m 1,0,-1
 165 1471 l 1,1,-1
 391 1471 l 1,2,-1
 391 856 l 1,3,-1
 1114 856 l 1,4,-1
 1114 1471 l 1,5,-1
 1340 1471 l 1,6,-1
 1340 0 l 1,7,-1
 1114 0 l 1,8,-1
 1114 671 l 1,9,-1
 391 671 l 1,10,-1
 391 0 l 1,11,-1
 165 0 l 1,0,-1
EndSplineSet
EndChar

StartChar: I
Encoding: 73 73 44
Width: 573
GlyphClass: 2
Flags: HW
LayerCount: 2
Fore
SplineSet
173 0 m 1,0,-1
 173 1471 l 1,1,-1
 399 1471 l 1,2,-1
 399 0 l 1,3,-1
 173 0 l 1,0,-1
EndSplineSet
EndChar

StartChar: J
Encoding: 74 74 45
Width: 595
GlyphClass: 2
Flags: HW
LayerCount: 2
Fore
SplineSet
-48 -271 m 1,0,-1
 -64 -91 l 1,1,2
 -43 -95 -43 -95 23 -95 c 128,-1,3
 89 -95 89 -95 127.5 -79.5 c 128,-1,4
 166 -64 166 -64 185 -29 c 0,5,6
 217 30 217 30 217 153 c 2,7,-1
 217 1481 l 1,8,-1
 445 1481 l 1,9,-1
 445 191 l 2,10,11
 444 -114 444 -114 320 -204 c 0,12,13
 220 -276 220 -276 19 -276 c 0,14,15
 -25 -276 -25 -276 -48 -271 c 1,0,-1
EndSplineSet
EndChar

StartChar: K
Encoding: 75 75 46
Width: 1303
GlyphClass: 2
Flags: HW
LayerCount: 2
Fore
SplineSet
165 0 m 1,0,-1
 165 1471 l 1,1,-1
 391 1471 l 1,2,-1
 391 781 l 1,3,4
 429 831 429 831 697 1136.5 c 128,-1,5
 965 1442 965 1442 989 1471 c 1,6,-1
 1261 1471 l 1,7,-1
 686 809 l 1,8,-1
 1302 0 l 1,9,-1
 1032 0 l 1,10,-1
 514 679 l 1,11,-1
 391 574 l 1,12,-1
 391 0 l 1,13,-1
 165 0 l 1,0,-1
EndSplineSet
EndChar

StartChar: L
Encoding: 76 76 47
Width: 1048
GlyphClass: 2
Flags: HW
LayerCount: 2
Fore
SplineSet
165 0 m 1,0,-1
 165 1471 l 1,1,-1
 392 1471 l 1,2,-1
 392 188 l 1,3,-1
 1022 188 l 1,4,-1
 1015 0 l 1,5,-1
 165 0 l 1,0,-1
EndSplineSet
EndChar

StartChar: M
Encoding: 77 77 48
Width: 1830
GlyphClass: 2
Flags: HW
LayerCount: 2
Fore
SplineSet
166 0 m 1,0,-1
 166 1471 l 1,1,-1
 441 1471 l 1,2,-1
 918 358 l 1,3,-1
 1393 1471 l 1,4,-1
 1664 1471 l 1,5,-1
 1664 0 l 1,6,-1
 1452 0 l 1,7,-1
 1452 800 l 1,8,-1
 1459 1187 l 1,9,-1
 1422 1082 l 1,10,-1
 1012 96 l 1,11,-1
 809 96 l 1,12,-1
 402 1086 l 1,13,-1
 364 1192 l 1,14,-1
 372 797 l 1,15,-1
 372 0 l 1,16,-1
 166 0 l 1,0,-1
EndSplineSet
EndChar

StartChar: N
Encoding: 78 78 49
Width: 1537
GlyphClass: 2
Flags: HW
LayerCount: 2
Fore
SplineSet
165 0 m 1,0,-1
 165 1471 l 1,1,-1
 409 1471 l 1,2,-1
 1093 427 l 2,3,4
 1130 369 1130 369 1171 312 c 1,5,6
 1164 644 1164 644 1164 674 c 2,7,-1
 1164 1471 l 1,8,-1
 1371 1471 l 1,9,-1
 1371 0 l 1,10,-1
 1124 0 l 1,11,-1
 364 1166 l 1,12,13
 373 932 373 932 373 793 c 2,14,-1
 373 0 l 1,15,-1
 165 0 l 1,0,-1
EndSplineSet
EndChar

StartChar: O
Encoding: 79 79 50
Width: 1626
GlyphClass: 2
Flags: HW
LayerCount: 2
Fore
SplineSet
814 167 m 128,-1,1
 1047 167 1047 167 1165 316.5 c 128,-1,2
 1283 466 1283 466 1283 736.5 c 128,-1,3
 1283 1007 1283 1007 1164.5 1157 c 128,-1,4
 1046 1307 1046 1307 815 1307 c 128,-1,5
 584 1307 584 1307 463.5 1156.5 c 128,-1,6
 343 1006 343 1006 343 736.5 c 128,-1,7
 343 467 343 467 462 317 c 128,-1,0
 581 167 581 167 814 167 c 128,-1,1
1333 183 m 128,-1,9
 1145 -21 1145 -21 812.5 -21 c 128,-1,10
 480 -21 480 -21 292.5 181.5 c 128,-1,11
 105 384 105 384 105 737.5 c 128,-1,12
 105 1091 105 1091 294 1293 c 128,-1,13
 483 1495 483 1495 813.5 1495 c 128,-1,14
 1144 1495 1144 1495 1332.5 1292 c 128,-1,15
 1521 1089 1521 1089 1521 738 c 128,-1,8
 1521 387 1521 387 1333 183 c 128,-1,9
EndSplineSet
EndChar

StartChar: P
Encoding: 80 80 51
Width: 1205
GlyphClass: 2
Flags: HW
LayerCount: 2
Fore
SplineSet
148 0 m 1,0,-1
 148 1481 l 1,1,-1
 634 1481 l 2,2,3
 874 1480 874 1480 1018 1382 c 0,4,5
 1168 1279 1168 1279 1168 1059 c 0,6,7
 1168 710 1168 710 878 622 c 0,8,9
 766 588 766 588 627.5 588 c 128,-1,10
 489 588 489 588 374 598 c 1,11,-1
 374 0 l 1,12,-1
 148 0 l 1,0,-1
374 766 m 1,13,14
 386 764 386 764 537 764 c 128,-1,15
 688 764 688 764 753 781.5 c 128,-1,16
 818 799 818 799 854.5 825 c 0,17,18
 892 852 892 852 912 892 c 0,19,20
 944 956 944 956 944 1066 c 128,-1,21
 944 1176 944 1176 862.5 1237.5 c 128,-1,22
 781 1299 781 1299 637 1299 c 2,23,-1
 374 1299 l 1,24,-1
 374 766 l 1,13,14
EndSplineSet
EndChar

StartChar: Q
Encoding: 81 81 52
Width: 1626
GlyphClass: 2
Flags: HW
LayerCount: 2
Fore
SplineSet
1259 -474 m 1,0,1
 1196 -424 1196 -424 1086 -278.5 c 128,-1,2
 976 -133 976 -133 916 -15 c 1,3,4
 866 -21 866 -21 814 -21 c 0,5,6
 480 -21 480 -21 292.5 181.5 c 128,-1,7
 105 384 105 384 105 737.5 c 128,-1,8
 105 1091 105 1091 294 1293 c 128,-1,9
 483 1495 483 1495 813.5 1495 c 128,-1,10
 1144 1495 1144 1495 1332.5 1292 c 128,-1,11
 1521 1089 1521 1089 1521 735 c 0,12,13
 1521 481 1521 481 1418 299.5 c 128,-1,14
 1315 118 1315 118 1125 37 c 1,15,16
 1130 27 1130 27 1147 1 c 128,-1,17
 1164 -25 1164 -25 1179 -49 c 128,-1,18
 1194 -73 1194 -73 1208.5 -93.5 c 128,-1,19
 1223 -114 1223 -114 1242 -141 c 128,-1,20
 1261 -168 1261 -168 1280 -192.5 c 0,21,22
 1300 -216 1300 -216 1320 -242 c 0,23,24
 1358 -289 1358 -289 1407 -337 c 1,25,-1
 1259 -474 l 1,0,1
814 167 m 128,-1,27
 1047 167 1047 167 1165 316.5 c 128,-1,28
 1283 466 1283 466 1283 736.5 c 128,-1,29
 1283 1007 1283 1007 1164.5 1157 c 128,-1,30
 1046 1307 1046 1307 815 1307 c 128,-1,31
 584 1307 584 1307 463.5 1156.5 c 128,-1,32
 343 1006 343 1006 343 736.5 c 128,-1,33
 343 467 343 467 462 317 c 128,-1,26
 581 167 581 167 814 167 c 128,-1,27
EndSplineSet
EndChar

StartChar: R
Encoding: 82 82 53
Width: 1368
GlyphClass: 2
Flags: HW
LayerCount: 2
Fore
SplineSet
760 655 m 1,0,-1
 620 654 l 1,1,-1
 375 658 l 1,2,-1
 375 0 l 1,3,-1
 149 0 l 1,4,-1
 149 1481 l 1,5,-1
 660 1481 l 2,6,7
 884 1481 884 1481 985.5 1446.5 c 128,-1,8
 1087 1412 1087 1412 1133 1368 c 0,9,10
 1233 1272 1233 1272 1233 1082 c 0,11,12
 1233 938 1233 938 1162.5 840 c 128,-1,13
 1092 742 1092 742 960 699 c 1,14,15
 1015 630 1015 630 1082 484 c 1,16,-1
 1312 0 l 1,17,-1
 1060 0 l 1,18,-1
 874 420 l 1,19,20
 778 626 778 626 760 655 c 1,0,-1
706 830 m 0,21,22
 878 830 878 830 949 889 c 128,-1,23
 1020 948 1020 948 1020 1070 c 128,-1,24
 1020 1192 1020 1192 950 1246.5 c 128,-1,25
 880 1301 880 1301 725 1301 c 2,26,-1
 375 1301 l 1,27,-1
 375 833 l 1,28,29
 597 830 597 830 706 830 c 0,21,22
EndSplineSet
EndChar

StartChar: S
Encoding: 83 83 54
Width: 1206
GlyphClass: 2
Flags: HW
LayerCount: 2
Fore
SplineSet
1014 1227 m 1,0,1
 830 1318 830 1318 657.5 1318 c 128,-1,2
 485 1318 485 1318 410 1266.5 c 128,-1,3
 335 1215 335 1215 333 1103 c 1,4,5
 333 963 333 963 500 918 c 0,6,7
 510 915 510 915 623.5 884 c 128,-1,8
 737 853 737 853 759 845 c 1,9,10
 950 790 950 790 1039.5 693 c 128,-1,11
 1129 596 1129 596 1129 422 c 0,12,13
 1129 206 1129 206 986 92.5 c 128,-1,14
 843 -21 843 -21 571 -21 c 128,-1,15
 299 -21 299 -21 94 101 c 1,16,-1
 153 283 l 1,17,18
 374 168 374 168 608 168 c 0,19,20
 899 168 899 168 899 420 c 0,21,22
 899 503 899 503 849 555.5 c 128,-1,23
 799 608 799 608 689 638 c 0,24,25
 685 639 685 639 557.5 674 c 128,-1,26
 430 709 430 709 413 716 c 1,27,28
 98 812 98 812 98 1091 c 0,29,30
 98 1296 98 1296 241.5 1401.5 c 128,-1,31
 385 1507 385 1507 640.5 1507 c 128,-1,32
 896 1507 896 1507 1081 1399 c 1,33,-1
 1014 1227 l 1,0,1
EndSplineSet
EndChar

StartChar: T
Encoding: 84 84 55
Width: 1128
GlyphClass: 2
Flags: HW
LayerCount: 2
Fore
SplineSet
451 0 m 1,0,-1
 451 1284 l 1,1,-1
 11 1284 l 1,2,-1
 11 1471 l 1,3,-1
 1116 1471 l 1,4,-1
 1116 1284 l 1,5,-1
 677 1284 l 1,6,-1
 677 0 l 1,7,-1
 451 0 l 1,0,-1
EndSplineSet
EndChar

StartChar: U
Encoding: 85 85 56
Width: 1454
GlyphClass: 2
Flags: HW
LayerCount: 2
Fore
SplineSet
1156 122 m 128,-1,1
 1010 -21 1010 -21 722.5 -21 c 128,-1,2
 435 -21 435 -21 292.5 122 c 128,-1,3
 150 265 150 265 150 524 c 2,4,-1
 150 1471 l 1,5,-1
 376 1471 l 1,6,-1
 376 535 l 2,7,8
 376 344 376 344 459.5 255 c 128,-1,9
 543 166 543 166 725 166 c 128,-1,10
 907 166 907 166 991.5 255.5 c 128,-1,11
 1076 345 1076 345 1076 536 c 2,12,-1
 1076 1471 l 1,13,-1
 1302 1471 l 1,14,-1
 1302 522 l 2,15,0
 1302 265 1302 265 1156 122 c 128,-1,1
EndSplineSet
EndChar

StartChar: V
Encoding: 86 86 57
Width: 1284
GlyphClass: 2
Flags: HW
LayerCount: 2
Fore
SplineSet
528 0 m 1,0,-1
 -5 1471 l 1,1,-1
 230 1471 l 1,2,-1
 549 551 l 2,3,4
 589 434 589 434 645 244 c 1,5,6
 663 333 663 333 715.5 484.5 c 128,-1,7
 768 636 768 636 896 1009 c 128,-1,8
 1024 1382 1024 1382 1056 1471 c 1,9,-1
 1290 1471 l 1,10,-1
 759 0 l 1,11,-1
 528 0 l 1,0,-1
EndSplineSet
EndChar

StartChar: W
Encoding: 87 87 58
Width: 2034
GlyphClass: 2
Flags: HW
LayerCount: 2
Fore
SplineSet
425 0 m 1,0,-1
 5 1471 l 1,1,-1
 234 1471 l 1,2,-1
 556 270 l 1,3,-1
 905 1455 l 1,4,-1
 1134 1455 l 1,5,-1
 1469 268 l 1,6,-1
 1795 1471 l 1,7,-1
 2024 1471 l 1,8,-1
 1595 0 l 1,9,-1
 1356 0 l 1,10,-1
 1022 1151 l 1,11,-1
 663 0 l 1,12,-1
 425 0 l 1,0,-1
EndSplineSet
EndChar

StartChar: X
Encoding: 88 88 59
Width: 1292
GlyphClass: 2
Flags: HW
LayerCount: 2
Fore
SplineSet
-1 0 m 1,0,-1
 508 760 l 1,1,-1
 34 1471 l 1,2,-1
 291 1471 l 1,3,-1
 653 904 l 1,4,-1
 1028 1471 l 1,5,-1
 1269 1471 l 1,6,-1
 788 759 l 1,7,-1
 1294 0 l 1,8,-1
 1033 0 l 1,9,-1
 643 612 l 1,10,-1
 245 0 l 1,11,-1
 -1 0 l 1,0,-1
EndSplineSet
EndChar

StartChar: Y
Encoding: 89 89 60
Width: 1227
GlyphClass: 2
Flags: HW
LayerCount: 2
Fore
SplineSet
495 0 m 1,0,-1
 495 583 l 1,1,-1
 -8 1471 l 1,2,-1
 236 1471 l 1,3,-1
 611 796 l 1,4,-1
 992 1471 l 1,5,-1
 1235 1471 l 1,6,-1
 722 588 l 1,7,-1
 722 0 l 1,8,-1
 495 0 l 1,0,-1
EndSplineSet
EndChar

StartChar: Z
Encoding: 90 90 61
Width: 1197
GlyphClass: 2
Flags: HW
LayerCount: 2
Fore
SplineSet
73 0 m 1,0,-1
 73 157 l 1,1,-1
 860 1284 l 1,2,-1
 101 1284 l 1,3,-1
 101 1471 l 1,4,-1
 1134 1471 l 1,5,-1
 1134 1306 l 1,6,-1
 352 188 l 1,7,-1
 1141 188 l 1,8,-1
 1137 0 l 1,9,-1
 73 0 l 1,0,-1
EndSplineSet
EndChar

StartChar: bracketleft
Encoding: 91 91 62
Width: 662
GlyphClass: 2
Flags: HW
LayerCount: 2
Fore
SplineSet
139 -278 m 1,0,-1
 139 1496 l 1,1,-1
 598 1496 l 1,2,-1
 598 1338 l 1,3,-1
 354 1338 l 1,4,-1
 354 -120 l 1,5,-1
 598 -120 l 1,6,-1
 598 -278 l 1,7,-1
 139 -278 l 1,0,-1
EndSplineSet
EndChar

StartChar: backslash
Encoding: 92 92 63
Width: 875
GlyphClass: 2
Flags: HW
LayerCount: 2
Fore
SplineSet
650 -60 m 1,0,-1
 40 1463 l 1,1,-1
 236 1463 l 1,2,-1
 845 -60 l 1,3,-1
 650 -60 l 1,0,-1
EndSplineSet
EndChar

StartChar: bracketright
Encoding: 93 93 64
Width: 662
GlyphClass: 2
Flags: HW
LayerCount: 2
Fore
SplineSet
65 -278 m 1,0,-1
 65 -120 l 1,1,-1
 308 -120 l 1,2,-1
 308 1338 l 1,3,-1
 65 1338 l 1,4,-1
 65 1496 l 1,5,-1
 524 1496 l 1,6,-1
 524 -278 l 1,7,-1
 65 -278 l 1,0,-1
EndSplineSet
EndChar

StartChar: asciicircum
Encoding: 94 94 65
Width: 1155
GlyphClass: 2
Flags: HW
LayerCount: 2
Fore
SplineSet
51 567 m 1,0,-1
 506 1492 l 1,1,-1
 622 1492 l 1,2,-1
 1104 567 l 1,3,-1
 926 567 l 1,4,-1
 565 1271 l 1,5,-1
 231 567 l 1,6,-1
 51 567 l 1,0,-1
EndSplineSet
EndChar

StartChar: underscore
Encoding: 95 95 66
Width: 1123
GlyphClass: 2
Flags: HW
LayerCount: 2
Fore
SplineSet
73 -312 m 1,0,-1
 73 -156 l 1,1,-1
 1052 -156 l 1,2,-1
 1052 -312 l 1,3,-1
 73 -312 l 1,0,-1
EndSplineSet
EndChar

StartChar: grave
Encoding: 96 96 67
Width: 574
GlyphClass: 2
Flags: HW
LayerCount: 2
Fore
SplineSet
362 1221 m 1,0,-1
 35 1606 l 1,1,-1
 315 1606 l 1,2,-1
 501 1221 l 1,3,-1
 362 1221 l 1,0,-1
EndSplineSet
EndChar

StartChar: a
Encoding: 97 97 68
Width: 1121
GlyphClass: 2
Flags: HW
LayerCount: 2
Fore
SplineSet
235 880 m 1,0,1
 203 977 203 977 177 1037 c 1,2,3
 357 1123 357 1123 574.5 1123 c 128,-1,4
 792 1123 792 1123 888 1030 c 128,-1,5
 984 937 984 937 984 721 c 2,6,-1
 984 0 l 1,7,-1
 820 0 l 1,8,9
 819 4 819 4 802 65.5 c 128,-1,10
 785 127 785 127 783 136 c 1,11,12
 697 51 697 51 618 14.5 c 128,-1,13
 539 -22 539 -22 429 -22 c 0,14,15
 275 -22 275 -22 181 60.5 c 128,-1,16
 87 143 87 143 87 306 c 128,-1,17
 87 469 87 469 206.5 550.5 c 128,-1,18
 326 632 326 632 558 653 c 0,19,20
 596 657 596 657 667 663.5 c 128,-1,21
 738 670 738 670 767 673 c 1,22,-1
 767 749 l 2,23,24
 767 856 767 856 717.5 906.5 c 128,-1,25
 668 957 668 957 540.5 957 c 128,-1,26
 413 957 413 957 235 880 c 1,0,1
303 301 m 0,27,28
 303 140 303 140 489 140 c 0,29,30
 583 140 583 140 661 194 c 128,-1,31
 739 248 739 248 766 333 c 1,32,-1
 766 532 l 1,33,34
 747 532 747 532 647 522 c 1,35,36
 462 506 462 506 382.5 457.5 c 128,-1,37
 303 409 303 409 303 301 c 0,27,28
EndSplineSet
EndChar

StartChar: b
Encoding: 98 98 69
Width: 1236
GlyphClass: 2
Flags: HW
LayerCount: 2
Fore
SplineSet
690 -22 m 0,0,1
 579 -22 579 -22 488 26 c 128,-1,2
 397 74 397 74 347 146 c 1,3,-1
 326 0 l 1,4,-1
 137 0 l 1,5,-1
 137 1513 l 1,6,-1
 356 1527 l 1,7,-1
 356 1176 l 2,8,9
 356 1080 356 1080 351 948 c 1,10,11
 405 1023 405 1023 492.5 1073 c 128,-1,12
 580 1123 580 1123 708.5 1123 c 0,13,14
 837 1124 837 1124 941 1050 c 0,15,16
 1150 902 1150 902 1150 558 c 0,17,18
 1150 297 1150 297 1027 137.5 c 128,-1,19
 904 -22 904 -22 690 -22 c 0,0,1
648 150 m 0,20,21
 784 150 784 150 857 258.5 c 128,-1,22
 930 367 930 367 930 554.5 c 128,-1,23
 930 742 930 742 858.5 847.5 c 128,-1,24
 787 953 787 953 648 953 c 128,-1,25
 509 953 509 953 432 855.5 c 128,-1,26
 355 758 355 758 354 561 c 1,27,28
 354 150 354 150 648 150 c 0,20,21
EndSplineSet
EndChar

StartChar: c
Encoding: 99 99 70
Width: 989
GlyphClass: 2
Flags: HW
LayerCount: 2
Fore
SplineSet
611 -22 m 0,0,1
 362 -22 362 -22 224 131 c 0,2,3
 86 283 86 283 86 548 c 0,4,5
 86 816 86 816 230 970 c 0,6,7
 374 1124 374 1124 614 1123 c 0,8,9
 803 1123 803 1123 924 1043 c 1,10,-1
 869 883 l 1,11,12
 740 950 740 950 606.5 950 c 128,-1,13
 473 950 473 950 389.5 845.5 c 128,-1,14
 306 741 306 741 306 550.5 c 128,-1,15
 306 360 306 360 389 255.5 c 128,-1,16
 472 151 472 151 614 151 c 128,-1,17
 756 151 756 151 892 229 c 1,18,-1
 915 61 l 1,19,20
 794 -22 794 -22 611 -22 c 0,0,1
EndSplineSet
EndChar

StartChar: d
Encoding: 100 100 71
Width: 1237
GlyphClass: 2
Flags: HW
LayerCount: 2
Fore
SplineSet
883 154 m 1,0,1
 771 -21 771 -21 551.5 -21 c 128,-1,2
 332 -21 332 -21 209 135 c 128,-1,3
 86 291 86 291 86 551 c 128,-1,4
 86 811 86 811 210 967 c 128,-1,5
 334 1123 334 1123 546 1123 c 0,6,7
 669 1123 669 1123 756 1074 c 128,-1,8
 843 1025 843 1025 886 953 c 1,9,10
 879 1028 879 1028 879 1099 c 2,11,-1
 879 1513 l 1,12,-1
 1096 1527 l 1,13,-1
 1096 0 l 1,14,-1
 909 0 l 1,15,-1
 883 154 l 1,0,1
589 152 m 0,16,17
 882 152 882 152 883 534 c 0,18,19
 883 746 883 746 810.5 848 c 128,-1,20
 738 950 738 950 595.5 950 c 128,-1,21
 453 950 453 950 379.5 843.5 c 128,-1,22
 306 737 306 737 306 549.5 c 128,-1,23
 306 362 306 362 379.5 257 c 128,-1,24
 453 152 453 152 589 152 c 0,16,17
EndSplineSet
EndChar

StartChar: e
Encoding: 101 101 72
Width: 1135
GlyphClass: 2
Flags: HW
LayerCount: 2
Fore
SplineSet
1050 608 m 1,0,-1
 1049 506 l 1,1,-1
 308 506 l 1,2,3
 312 337 312 337 398.5 243 c 128,-1,4
 485 149 485 149 648 149 c 128,-1,5
 811 149 811 149 981 242 c 1,6,-1
 1013 80 l 1,7,8
 845 -22 845 -22 609 -22 c 128,-1,9
 373 -22 373 -22 230 130 c 128,-1,10
 87 282 87 282 87 545 c 128,-1,11
 87 808 87 808 223 965 c 128,-1,12
 359 1122 359 1122 582 1122 c 0,13,14
 583 1122 583 1122 584 1123 c 0,15,16
 806 1122 806 1122 928 982 c 0,17,18
 1050 842 1050 842 1050 608 c 1,0,-1
313 653 m 1,19,-1
 839 653 l 1,20,21
 839 800 839 800 772 879.5 c 128,-1,22
 705 959 705 959 590 959 c 128,-1,23
 475 959 475 959 400 879 c 128,-1,24
 325 799 325 799 313 653 c 1,19,-1
EndSplineSet
EndChar

StartChar: f
Encoding: 102 102 73
Width: 727
GlyphClass: 2
Flags: HW
LayerCount: 2
Fore
SplineSet
207 0 m 1,0,-1
 207 947 l 1,1,-1
 31 947 l 1,2,-1
 47 1081 l 1,3,-1
 207 1098 l 1,4,-1
 207 1153 l 1,5,6
 208 1360 208 1360 288 1455.5 c 128,-1,7
 368 1551 368 1551 556 1551 c 0,8,9
 635 1551 635 1551 742 1534 c 1,10,-1
 724 1368 l 1,11,12
 632 1380 632 1380 592 1380 c 0,13,14
 499 1380 499 1380 462 1330.5 c 128,-1,15
 425 1281 425 1281 425 1162 c 2,16,-1
 425 1098 l 1,17,-1
 686 1098 l 1,18,-1
 686 947 l 1,19,-1
 425 947 l 1,20,-1
 425 0 l 1,21,-1
 207 0 l 1,0,-1
EndSplineSet
EndChar

StartChar: g
Encoding: 103 103 74
Width: 1230
GlyphClass: 2
Flags: HW
LayerCount: 2
Fore
SplineSet
334 -496 m 1,0,-1
 319 -313 l 1,1,-1
 485 -313 l 2,2,3
 722 -314 722 -314 806 -228 c 0,4,5
 850 -182 850 -182 867.5 -118.5 c 128,-1,6
 885 -55 885 -55 885 39.5 c 128,-1,7
 885 134 885 134 882 165 c 1,8,9
 825 85 825 85 753 43 c 128,-1,10
 681 1 681 1 546.5 1 c 128,-1,11
 412 1 412 1 299.5 78.5 c 128,-1,12
 187 156 187 156 130 280.5 c 128,-1,13
 73 405 73 405 73 554 c 0,14,15
 73 810 73 810 205.5 966.5 c 128,-1,16
 338 1123 338 1123 555.5 1123 c 128,-1,17
 773 1123 773 1123 889 958 c 1,18,-1
 899 1098 l 1,19,-1
 1100 1098 l 1,20,-1
 1100 78 l 2,21,22
 1100 -168 1100 -168 1027 -286 c 0,23,24
 963 -390 963 -390 845 -440 c 0,25,26
 711 -496 711 -496 501 -496 c 2,27,-1
 334 -496 l 1,0,-1
598 164 m 0,28,29
 674 164 674 164 732.5 192.5 c 0,30,31
 790 221 790 221 824 272 c 0,32,33
 888 370 888 370 889 532 c 2,34,-1
 889 590 l 1,35,36
 888 756 888 756 816.5 853 c 128,-1,37
 745 950 745 950 602 950 c 0,38,39
 498 950 498 950 426 894 c 0,40,41
 292 789 292 789 293 558 c 0,42,43
 293 404 293 404 367 288 c 0,44,45
 446 164 446 164 598 164 c 0,28,29
EndSplineSet
EndChar

StartChar: h
Encoding: 104 104 75
Width: 1220
GlyphClass: 2
Flags: HW
LayerCount: 2
Fore
SplineSet
137 0 m 1,0,-1
 137 1513 l 1,1,-1
 356 1527 l 1,2,-1
 356 1150 l 2,3,4
 356 1034 356 1034 350 959 c 1,5,6
 486 1123 486 1123 713 1123 c 0,7,8
 897 1123 897 1123 994 1016 c 128,-1,9
 1091 909 1091 909 1091 693 c 2,10,-1
 1091 0 l 1,11,-1
 872 0 l 1,12,-1
 872 665 l 2,13,14
 872 814 872 814 824.5 882.5 c 128,-1,15
 777 951 777 951 667 951 c 0,16,17
 557 951 557 951 480 898 c 128,-1,18
 403 845 403 845 373 761 c 1,19,20
 356 679 356 679 356 555 c 2,21,-1
 356 0 l 1,22,-1
 137 0 l 1,0,-1
EndSplineSet
EndChar

StartChar: i
Encoding: 105 105 76
Width: 502
GlyphClass: 2
Flags: HW
LayerCount: 2
Fore
SplineSet
148 0 m 1,0,-1
 148 1098 l 1,1,-1
 367 1098 l 1,2,-1
 367 0 l 1,3,-1
 148 0 l 1,0,-1
148 1277 m 1,4,-1
 148 1489 l 1,5,-1
 367 1489 l 1,6,-1
 367 1277 l 1,7,-1
 148 1277 l 1,4,-1
EndSplineSet
EndChar

StartChar: j
Encoding: 106 106 77
Width: 489
GlyphClass: 2
Flags: HW
LayerCount: 2
Fore
SplineSet
-51 -462 m 1,0,-1
 -77 -287 l 1,1,-1
 -22 -287 l 2,2,3
 74 -287 74 -287 118 -257 c 0,4,5
 154 -232 154 -232 160 -152 c 0,6,7
 162 -120 162 -120 163 -64 c 2,8,-1
 163 1098 l 1,9,-1
 382 1098 l 1,10,-1
 382 -50 l 2,11,12
 382 -283 382 -283 311 -365 c 0,13,14
 252 -433 252 -433 142 -452 c 0,15,16
 84 -462 84 -462 4 -462 c 2,17,-1
 -51 -462 l 1,0,-1
163 1277 m 1,18,-1
 163 1489 l 1,19,-1
 382 1489 l 1,20,-1
 382 1277 l 1,21,-1
 163 1277 l 1,18,-1
EndSplineSet
EndChar

StartChar: k
Encoding: 107 107 78
Width: 1112
GlyphClass: 2
Flags: HW
LayerCount: 2
Fore
SplineSet
139 0 m 1,0,-1
 139 1513 l 1,1,-1
 356 1527 l 1,2,-1
 356 795 l 1,3,-1
 353 611 l 1,4,5
 356 615 356 615 372.5 631.5 c 0,6,7
 388 648 388 648 418 682 c 128,-1,8
 448 716 448 716 517 788 c 128,-1,9
 586 860 586 860 686 961 c 128,-1,10
 786 1062 786 1062 821 1098 c 1,11,-1
 1088 1098 l 1,12,-1
 634 633 l 1,13,-1
 1118 0 l 1,14,-1
 851 0 l 1,15,-1
 471 518 l 1,16,-1
 356 423 l 1,17,-1
 356 0 l 1,18,-1
 139 0 l 1,0,-1
EndSplineSet
EndChar

StartChar: l
Encoding: 108 108 79
Width: 653
GlyphClass: 2
Flags: HW
LayerCount: 2
Fore
SplineSet
481 -17 m 0,0,1
 289 -17 289 -17 214.5 79 c 128,-1,2
 140 175 140 175 140 402 c 2,3,-1
 140 1513 l 1,4,-1
 358 1527 l 1,5,-1
 358 435 l 2,6,7
 358 266 358 266 389.5 210 c 128,-1,8
 421 154 421 154 526 154 c 0,9,10
 571 154 571 154 652 166 c 1,11,-1
 661 3 l 1,12,13
 535 -17 535 -17 481 -17 c 0,0,1
EndSplineSet
EndChar

StartChar: m
Encoding: 109 109 80
Width: 1877
GlyphClass: 2
Flags: HW
LayerCount: 2
Fore
SplineSet
1023 938 m 1,0,1
 1145 1123 1145 1123 1387 1123 c 1,2,3
 1573 1123 1573 1123 1660 1017.5 c 128,-1,4
 1747 912 1747 912 1747 704 c 2,5,-1
 1747 0 l 1,6,-1
 1529 0 l 1,7,-1
 1529 600 l 2,8,9
 1528 820 1528 820 1476 890 c 0,10,11
 1431 951 1431 951 1338.5 950.5 c 129,-1,12
 1246 950 1246 950 1180.5 903.5 c 128,-1,13
 1115 857 1115 857 1083 772 c 1,14,15
 1063 706 1063 706 1058 622 c 1,16,-1
 1058 0 l 1,17,-1
 840 0 l 1,18,-1
 840 614 l 2,19,20
 840 816 840 816 782 890 c 0,21,22
 735 950 735 950 639 950 c 129,-1,23
 543 950 543 950 473 899 c 128,-1,24
 403 848 403 848 373 765 c 1,25,26
 357 679 357 679 357 558 c 2,27,-1
 357 0 l 1,28,-1
 139 0 l 1,29,30
 137 1058 137 1058 137 1098 c 1,31,-1
 316 1098 l 1,32,-1
 342 950 l 1,33,34
 465 1123 465 1123 700 1123 c 0,35,36
 891 1124 891 1124 986 1002 c 0,37,38
 1009 972 1009 972 1023 938 c 1,0,1
EndSplineSet
EndChar

StartChar: n
Encoding: 110 110 81
Width: 1222
GlyphClass: 2
Flags: HW
LayerCount: 2
Fore
SplineSet
137 0 m 1,0,-1
 137 1098 l 1,1,-1
 316 1098 l 1,2,-1
 341 950 l 1,3,4
 496 1123 496 1123 714 1123 c 0,5,6
 1092 1123 1092 1123 1092 691 c 2,7,-1
 1092 0 l 1,8,-1
 874 0 l 1,9,10
 874 655 874 655 873 683 c 0,11,12
 871 819 871 819 823.5 884.5 c 128,-1,13
 776 950 776 950 666 950 c 0,14,15
 556 950 556 950 478.5 898.5 c 128,-1,16
 401 847 401 847 372 765 c 1,17,18
 357 699 357 699 357 565 c 2,19,-1
 357 0 l 1,20,-1
 137 0 l 1,0,-1
EndSplineSet
EndChar

StartChar: o
Encoding: 111 111 82
Width: 1212
GlyphClass: 2
Flags: HW
LayerCount: 2
Fore
SplineSet
383 255.5 m 128,-1,1
 459 149 459 149 607.5 149 c 128,-1,2
 756 149 756 149 830.5 255 c 128,-1,3
 905 361 905 361 905 551.5 c 128,-1,4
 905 742 905 742 831 847 c 128,-1,5
 757 952 757 952 607.5 952 c 128,-1,6
 458 952 458 952 382.5 845.5 c 128,-1,7
 307 739 307 739 307 550.5 c 128,-1,0
 307 362 307 362 383 255.5 c 128,-1,1
601 -22 m 0,8,9
 443 -22 443 -22 325.5 51.5 c 128,-1,10
 208 125 208 125 147 254 c 128,-1,11
 86 383 86 383 86 550 c 0,12,13
 86 811 86 811 224.5 967 c 128,-1,14
 363 1123 363 1123 607.5 1123 c 128,-1,15
 852 1123 852 1123 989 965.5 c 128,-1,16
 1126 808 1126 808 1126 549.5 c 128,-1,17
 1126 291 1126 291 987 134.5 c 128,-1,18
 848 -22 848 -22 601 -22 c 0,8,9
EndSplineSet
EndChar

StartChar: p
Encoding: 112 112 83
Width: 1230
GlyphClass: 2
Flags: HW
LayerCount: 2
Fore
SplineSet
349 946 m 1,0,1
 476 1124 476 1124 693 1124 c 0,2,3
 834 1124 834 1124 938 1049 c 0,4,5
 1144 899 1144 899 1145 549 c 0,6,7
 1145 296 1145 296 1021.5 137 c 128,-1,8
 898 -22 898 -22 687 -22 c 0,9,10
 582 -22 582 -22 493.5 22.5 c 128,-1,11
 405 67 405 67 349 141 c 1,12,13
 356 -10 356 -10 356 -43 c 2,14,-1
 356 -454 l 1,15,-1
 137 -466 l 1,16,-1
 137 1098 l 1,17,-1
 327 1098 l 1,18,-1
 349 946 l 1,0,1
354 571 m 1,19,20
 354 151 354 151 637 151 c 0,21,22
 778 151 778 151 851 260.5 c 128,-1,23
 924 370 924 370 924 555 c 128,-1,24
 924 740 924 740 851 845.5 c 128,-1,25
 778 951 778 951 643 951 c 0,26,27
 356 951 356 951 354 571 c 1,19,20
EndSplineSet
EndChar

StartChar: q
Encoding: 113 113 84
Width: 1237
GlyphClass: 2
Flags: HW
LayerCount: 2
Fore
SplineSet
879 -466 m 1,0,-1
 879 9 l 2,1,2
 879 74 879 74 884 154 c 1,3,4
 837 80 837 80 755.5 29 c 128,-1,5
 674 -22 674 -22 554 -22 c 0,6,7
 340 -22 340 -22 214 136.5 c 128,-1,8
 88 295 88 295 88 549 c 0,9,10
 88 900 88 900 300 1048 c 0,11,12
 406 1122 406 1122 554 1123 c 0,13,14
 766 1123 766 1123 888 951 c 1,15,-1
 905 1098 l 1,16,-1
 1097 1098 l 1,17,-1
 1097 -454 l 1,18,-1
 879 -466 l 1,0,-1
591 151 m 0,19,20
 880 151 880 151 884 532 c 1,21,22
 884 744 884 744 812 846.5 c 128,-1,23
 740 949 740 949 597 949 c 128,-1,24
 454 949 454 949 381 843 c 128,-1,25
 308 737 308 737 308 549.5 c 128,-1,26
 308 362 308 362 380.5 256.5 c 128,-1,27
 453 151 453 151 591 151 c 0,19,20
EndSplineSet
EndChar

StartChar: r
Encoding: 114 114 85
Width: 774
GlyphClass: 2
Flags: HW
LayerCount: 2
Fore
SplineSet
141 0 m 1,0,1
 140 1046 140 1046 140 1098 c 1,2,-1
 323 1098 l 1,3,-1
 349 917 l 1,4,5
 403 1006 403 1006 486.5 1055.5 c 128,-1,6
 570 1105 570 1105 671 1105 c 0,7,8
 717 1105 717 1105 746 1100 c 1,9,-1
 741 911 l 1,10,11
 702 918 702 918 659 918 c 0,12,13
 516 918 516 918 437.5 831.5 c 128,-1,14
 359 745 359 745 359 605 c 2,15,-1
 359 0 l 1,16,-1
 141 0 l 1,0,1
EndSplineSet
EndChar

StartChar: s
Encoding: 115 115 86
Width: 970
GlyphClass: 2
Flags: HW
LayerCount: 2
Fore
SplineSet
468 143 m 0,0,1
 680 143 680 143 684 291 c 1,2,3
 684 356 684 356 635 393 c 0,4,5
 576 438 576 438 414 492 c 0,6,7
 237 552 237 552 169 627.5 c 128,-1,8
 101 703 101 703 101 831 c 128,-1,9
 101 959 101 959 207 1041 c 128,-1,10
 313 1123 313 1123 505.5 1123 c 128,-1,11
 698 1123 698 1123 856 1048 c 1,12,-1
 798 891 l 1,13,14
 640 960 640 960 526 960 c 0,15,16
 310 960 310 960 310 829 c 0,17,18
 310 772 310 772 353.5 740.5 c 128,-1,19
 397 709 397 709 471 683 c 128,-1,20
 545 657 545 657 593 640 c 0,21,22
 751 586 751 586 821 510 c 0,23,24
 891 435 891 435 891 296 c 0,25,26
 890 153 890 153 780 66 c 0,27,28
 670 -21 670 -21 456.5 -21 c 128,-1,29
 243 -21 243 -21 102 63 c 1,30,-1
 126 234 l 1,31,32
 193 198 193 198 287.5 170.5 c 128,-1,33
 382 143 382 143 468 143 c 0,0,1
EndSplineSet
EndChar

StartChar: t
Encoding: 116 116 87
Width: 780
GlyphClass: 2
Flags: HW
LayerCount: 2
Fore
SplineSet
538 -17 m 0,0,1
 347 -17 347 -17 271.5 74.5 c 128,-1,2
 196 166 196 166 194 371 c 1,3,-1
 194 955 l 1,4,-1
 22 955 l 1,5,-1
 31 1083 l 1,6,-1
 204 1098 l 1,7,-1
 275 1374 l 1,8,-1
 412 1377 l 1,9,-1
 412 1098 l 1,10,-1
 699 1098 l 1,11,-1
 699 955 l 1,12,-1
 412 955 l 1,13,-1
 412 383 l 2,14,15
 412 257 412 257 448.5 205 c 128,-1,16
 485 153 485 153 580 153 c 0,17,18
 629 153 629 153 712 166 c 1,19,-1
 719 4 l 1,20,21
 596 -17 596 -17 538 -17 c 0,0,1
EndSplineSet
EndChar

StartChar: u
Encoding: 117 117 88
Width: 1140
GlyphClass: 2
Flags: HW
LayerCount: 2
Fore
SplineSet
571 -23 m 128,-1,1
 473 -23 473 -23 391 1 c 128,-1,2
 309 25 309 25 245 73 c 0,3,4
 109 175 109 175 109 384 c 2,5,-1
 109 1098 l 1,6,-1
 328 1098 l 1,7,-1
 328 389 l 2,8,9
 328 259 328 259 389.5 203 c 128,-1,10
 451 147 451 147 571 147 c 128,-1,11
 691 147 691 147 751.5 203 c 128,-1,12
 812 259 812 259 812 389 c 2,13,-1
 812 1098 l 1,14,-1
 1031 1098 l 1,15,-1
 1031 384 l 2,16,17
 1031 83 1031 83 751 1 c 0,18,0
 669 -23 669 -23 571 -23 c 128,-1,1
EndSplineSet
EndChar

StartChar: v
Encoding: 118 118 89
Width: 1081
GlyphClass: 2
Flags: HW
LayerCount: 2
Fore
SplineSet
434 0 m 1,0,-1
 4 1098 l 1,1,-1
 233 1098 l 1,2,3
 234 1094 234 1094 340 806 c 0,4,5
 522 312 522 312 552 208 c 1,6,7
 552 209 552 209 585.5 321.5 c 128,-1,8
 619 434 619 434 630.5 466 c 128,-1,9
 642 498 642 498 684 624 c 0,10,11
 797 958 797 958 849 1098 c 1,12,-1
 1078 1098 l 1,13,-1
 661 0 l 1,14,-1
 434 0 l 1,0,-1
EndSplineSet
EndChar

StartChar: w
Encoding: 119 119 90
Width: 1664
GlyphClass: 2
Flags: HW
LayerCount: 2
Fore
SplineSet
832 886 m 1,0,1
 717 484 717 484 562 0 c 1,2,-1
 339 0 l 1,3,-1
 16 1098 l 1,4,-1
 239 1098 l 1,5,-1
 461 249 l 1,6,7
 691 1006 691 1006 721 1098 c 1,8,-1
 953 1098 l 1,9,10
 966 1057 966 1057 1203 252 c 1,11,-1
 1427 1098 l 1,12,-1
 1648 1098 l 1,13,-1
 1317 0 l 1,14,-1
 1092 0 l 1,15,16
 1059 105 1059 105 953.5 468 c 128,-1,17
 848 831 848 831 832 886 c 1,0,1
EndSplineSet
EndChar

StartChar: x
Encoding: 120 120 91
Width: 1111
GlyphClass: 2
Flags: HW
LayerCount: 2
Fore
SplineSet
26 0 m 1,0,-1
 422 560 l 1,1,-1
 43 1098 l 1,2,-1
 291 1098 l 1,3,-1
 557 704 l 1,4,-1
 828 1098 l 1,5,-1
 1074 1098 l 1,6,-1
 693 560 l 1,7,-1
 1085 0 l 1,8,-1
 838 0 l 1,9,-1
 558 418 l 1,10,-1
 273 0 l 1,11,-1
 26 0 l 1,0,-1
EndSplineSet
EndChar

StartChar: y
Encoding: 121 121 92
Width: 1072
GlyphClass: 2
Flags: HW
LayerCount: 2
Fore
SplineSet
546 247 m 1,0,1
 574 350 574 350 831 1098 c 1,2,-1
 1064 1098 l 1,3,4
 613 -117 613 -117 604 -139 c 0,5,6
 534 -318 534 -318 430.5 -398 c 128,-1,7
 327 -478 327 -478 161 -478 c 0,8,9
 105 -478 105 -478 41 -470 c 1,10,-1
 30 -296 l 1,11,12
 85 -301 85 -301 159 -301 c 128,-1,13
 233 -301 233 -301 289.5 -262 c 128,-1,14
 346 -223 346 -223 379.5 -138 c 128,-1,15
 413 -53 413 -53 436 14 c 1,16,-1
 -2 1098 l 1,17,-1
 230 1098 l 1,18,-1
 546 247 l 1,0,1
EndSplineSet
EndChar

StartChar: z
Encoding: 122 122 93
Width: 947
GlyphClass: 2
Flags: HW
LayerCount: 2
Fore
SplineSet
73 0 m 1,0,-1
 73 144 l 1,1,-1
 625 939 l 1,2,-1
 94 939 l 1,3,-1
 94 1098 l 1,4,-1
 868 1098 l 1,5,-1
 868 941 l 1,6,-1
 332 164 l 1,7,-1
 885 164 l 1,8,-1
 885 0 l 1,9,-1
 73 0 l 1,0,-1
EndSplineSet
EndChar

StartChar: braceleft
Encoding: 123 123 94
Width: 761
GlyphClass: 2
Flags: HW
LayerCount: 2
Fore
SplineSet
295 617 m 1,0,1
 494 565 494 565 494 355 c 2,2,-1
 494 86 l 2,3,4
 494 -27 494 -27 530.5 -69 c 128,-1,5
 567 -111 567 -111 675 -112 c 1,6,-1
 675 -284 l 1,7,8
 468 -284 468 -284 375.5 -211 c 128,-1,9
 283 -138 283 -138 283 35 c 2,10,-1
 283 280 l 2,11,12
 283 412 283 412 237.5 470.5 c 128,-1,13
 192 529 192 529 62 529 c 1,14,-1
 62 711 l 1,15,16
 163 711 163 711 197.5 731.5 c 128,-1,17
 232 752 232 752 247 770 c 128,-1,18
 262 788 262 788 270 818 c 0,19,20
 283 867 283 867 283 956 c 2,21,-1
 283 1225 l 2,22,23
 283 1385 283 1385 379.5 1454.5 c 128,-1,24
 476 1524 476 1524 675 1524 c 1,25,-1
 675 1353 l 1,26,27
 567 1352 567 1352 530.5 1309.5 c 128,-1,28
 494 1267 494 1267 494 1154 c 2,29,-1
 494 887 l 2,30,31
 494 791 494 791 447 729 c 128,-1,32
 400 667 400 667 295 617 c 1,0,1
EndSplineSet
EndChar

StartChar: bar
Encoding: 124 124 95
Width: 778
GlyphClass: 2
Flags: HW
LayerCount: 2
Fore
SplineSet
301 -389 m 1,0,-1
 301 1557 l 1,1,-1
 477 1557 l 1,2,-1
 477 -389 l 1,3,-1
 301 -389 l 1,0,-1
EndSplineSet
EndChar

StartChar: braceright
Encoding: 125 125 96
Width: 764
GlyphClass: 2
Flags: HW
LayerCount: 2
Fore
SplineSet
90 -284 m 1,0,-1
 90 -112 l 1,1,2
 197 -111 197 -111 233 -69.5 c 128,-1,3
 269 -28 269 -28 269 86 c 2,4,-1
 269 355 l 2,5,6
 269 454 269 454 315 512 c 128,-1,7
 361 570 361 570 468 621 c 1,8,9
 271 683 271 683 269 887 c 1,10,-1
 269 1154 l 2,11,12
 269 1267 269 1267 233 1309.5 c 128,-1,13
 197 1352 197 1352 90 1353 c 1,14,-1
 90 1524 l 1,15,16
 295 1524 295 1524 388 1450.5 c 128,-1,17
 481 1377 481 1377 481 1204 c 2,18,-1
 481 956 l 2,19,20
 480 829 480 829 520 774 c 0,21,22
 565 711 565 711 702 711 c 1,23,-1
 702 529 l 1,24,25
 572 529 572 529 526.5 471 c 128,-1,26
 481 413 481 413 481 280 c 2,27,-1
 481 14 l 2,28,29
 481 -146 481 -146 386.5 -215 c 128,-1,30
 292 -284 292 -284 90 -284 c 1,0,-1
EndSplineSet
EndChar

StartChar: asciitilde
Encoding: 126 126 97
Width: 1278
GlyphClass: 2
Flags: HW
LayerCount: 2
Fore
SplineSet
191 486 m 1,0,-1
 125 612 l 1,1,2
 215 808 215 808 405 808 c 0,3,4
 511 808 511 808 628 756.5 c 128,-1,5
 745 705 745 705 796 688 c 128,-1,6
 847 671 847 671 888 671 c 0,7,8
 1002 671 1002 671 1109 816 c 1,9,-1
 1173 699 l 1,10,11
 1133 613 1133 613 1053.5 556.5 c 128,-1,12
 974 500 974 500 895.5 500 c 128,-1,13
 817 500 817 500 761.5 517 c 128,-1,14
 706 534 706 534 638 564.5 c 128,-1,15
 570 595 570 595 542 607 c 0,16,17
 464 640 464 640 398.5 640 c 128,-1,18
 333 640 333 640 280 596.5 c 128,-1,19
 227 553 227 553 191 486 c 1,0,-1
EndSplineSet
EndChar

StartChar: cent
Encoding: 162 162 100
Width: 1091
GlyphClass: 2
Flags: HW
LayerCount: 2
Fore
SplineSet
561 -108 m 1,0,-1
 561 107 l 1,1,2
 338 124 338 124 207 282 c 0,3,4
 76 439 76 439 76 679 c 0,5,6
 76 920 76 920 212 1074 c 0,7,8
 348 1228 348 1228 561 1244 c 1,9,-1
 561 1446 l 1,10,-1
 659 1446 l 1,11,-1
 659 1243 l 1,12,13
 821 1230 821 1230 916 1150 c 1,14,-1
 873 1002 l 1,15,16
 779 1066 779 1066 659 1077 c 1,17,-1
 659 272 l 1,18,19
 773 281 773 281 875 353 c 1,20,-1
 922 203 l 1,21,22
 814 118 814 118 659 107 c 1,23,-1
 659 -108 l 1,24,-1
 561 -108 l 1,0,-1
561 276 m 1,25,-1
 561 1074 l 1,26,27
 440 1054 440 1054 364 949 c 128,-1,28
 288 844 288 844 288 677 c 128,-1,29
 288 510 288 510 361.5 404 c 128,-1,30
 435 298 435 298 561 276 c 1,25,-1
EndSplineSet
EndChar

StartChar: sterling
Encoding: 163 163 101
Width: 1141
GlyphClass: 2
Flags: HW
LayerCount: 2
Fore
SplineSet
90 0 m 1,0,-1
 77 166 l 1,1,2
 177 206 177 206 218.5 273.5 c 128,-1,3
 260 341 260 341 260 459 c 2,4,-1
 260 669 l 1,5,-1
 74 669 l 1,6,-1
 74 828 l 1,7,-1
 260 828 l 1,8,-1
 260 928 l 2,9,10
 260 1494 260 1494 700 1494 c 0,11,12
 910 1494 910 1494 1072 1359 c 1,13,-1
 980 1213 l 1,14,15
 834 1315 834 1315 708 1315 c 0,16,17
 582 1315 582 1315 527.5 1235 c 128,-1,18
 473 1155 473 1155 473 1006 c 2,19,-1
 473 828 l 1,20,-1
 873 828 l 1,21,-1
 873 669 l 1,22,-1
 473 669 l 1,23,-1
 473 513 l 2,24,25
 473 398 473 398 447.5 318 c 128,-1,26
 422 238 422 238 357 185 c 1,27,28
 414 188 414 188 479 188 c 2,29,-1
 1088 188 l 1,30,-1
 1084 0 l 1,31,-1
 90 0 l 1,0,-1
EndSplineSet
EndChar

StartChar: currency
Encoding: 164 164 102
Width: 1157
GlyphClass: 2
Flags: HW
LayerCount: 2
Fore
SplineSet
1022 230 m 1,0,-1
 836 405 l 1,1,2
 722 316 722 316 576.5 316 c 128,-1,3
 431 316 431 316 321 404 c 1,4,-1
 138 231 l 1,5,-1
 54 314 l 1,6,-1
 239 489 l 1,7,8
 160 597 160 597 160 730 c 128,-1,9
 160 863 160 863 239 975 c 1,10,-1
 53 1151 l 1,11,-1
 138 1234 l 1,12,-1
 321 1060 l 1,13,14
 433 1149 433 1149 577.5 1149 c 128,-1,15
 722 1149 722 1149 836 1059 c 1,16,-1
 1022 1234 l 1,17,-1
 1103 1150 l 1,18,-1
 919 975 l 1,19,20
 998 863 998 863 998 729.5 c 128,-1,21
 998 596 998 596 920 489 c 1,22,-1
 1102 315 l 1,23,-1
 1022 230 l 1,0,-1
370.5 525.5 m 128,-1,25
 457 440 457 440 579.5 440 c 128,-1,26
 702 440 702 440 788 525.5 c 128,-1,27
 874 611 874 611 874 732 c 128,-1,28
 874 853 874 853 787.5 939 c 128,-1,29
 701 1025 701 1025 579 1025 c 128,-1,30
 457 1025 457 1025 370.5 938.5 c 128,-1,31
 284 852 284 852 284 731.5 c 128,-1,24
 284 611 284 611 370.5 525.5 c 128,-1,25
EndSplineSet
EndChar

StartChar: yen
Encoding: 165 165 103
Width: 1166
GlyphClass: 2
Flags: HW
LayerCount: 2
Fore
SplineSet
478 0 m 1,0,-1
 478 294 l 1,1,-1
 129 294 l 1,2,-1
 129 433 l 1,3,-1
 478 433 l 1,4,-1
 478 593 l 1,5,-1
 129 593 l 1,6,-1
 129 732 l 1,7,-1
 414 732 l 1,8,-1
 -12 1468 l 1,9,-1
 223 1468 l 1,10,-1
 584 823 l 1,11,-1
 948 1468 l 1,12,-1
 1177 1468 l 1,13,-1
 752 732 l 1,14,-1
 1041 732 l 1,15,-1
 1041 593 l 1,16,-1
 693 593 l 1,17,-1
 693 433 l 1,18,-1
 1042 433 l 1,19,-1
 1042 294 l 1,20,-1
 693 294 l 1,21,-1
 693 0 l 1,22,-1
 478 0 l 1,0,-1
EndSplineSet
EndChar

StartChar: brokenbar
Encoding: 166 166 104
Width: 803
GlyphClass: 2
Flags: HW
LayerCount: 2
Fore
SplineSet
314 -388 m 1,0,-1
 314 326 l 1,1,-1
 490 326 l 1,2,-1
 490 -388 l 1,3,-1
 314 -388 l 1,0,-1
314 844 m 1,4,-1
 314 1557 l 1,5,-1
 490 1557 l 1,6,-1
 490 844 l 1,7,-1
 314 844 l 1,4,-1
EndSplineSet
EndChar

StartChar: section
Encoding: 167 167 105
Width: 1026
GlyphClass: 2
Flags: HW
LayerCount: 2
Fore
SplineSet
898 777 m 0,0,1
 898 609 898 609 750 511 c 1,2,3
 887 427 887 427 887 279.5 c 128,-1,4
 887 132 887 132 770 51 c 128,-1,5
 653 -30 653 -30 461.5 -30 c 128,-1,6
 270 -30 270 -30 141 34 c 1,7,-1
 141 208 l 1,8,9
 300 131 300 131 429 131 c 0,10,11
 673 131 673 131 684 258 c 1,12,13
 685 267 685 267 685 275 c 0,14,15
 686 322 686 322 646 354 c 0,16,17
 600 392 600 392 491 436 c 128,-1,18
 382 480 382 480 324.5 512 c 128,-1,19
 267 544 267 544 223 584 c 0,20,21
 137 662 137 662 137 786 c 0,22,23
 137 869 137 869 179 935 c 128,-1,24
 221 1001 221 1001 290 1041 c 1,25,26
 155 1132 155 1132 155 1273 c 128,-1,27
 155 1414 155 1414 251 1486.5 c 128,-1,28
 347 1559 347 1559 516 1565 c 1,29,30
 540 1567 540 1567 565 1567 c 0,31,32
 711 1567 711 1567 855 1510 c 1,33,34
 847 1454 847 1454 824 1344 c 1,35,36
 688 1405 688 1405 551 1405 c 0,37,38
 351 1405 351 1405 351 1286 c 0,39,40
 351 1230 351 1230 401 1190.5 c 128,-1,41
 451 1151 451 1151 594.5 1093 c 128,-1,42
 738 1035 738 1035 818 961 c 128,-1,43
 898 887 898 887 898 777 c 0,0,1
596 584 m 1,44,45
 714 658 714 658 714 748 c 0,46,47
 714 834 714 834 604 894 c 0,48,49
 542 928 542 928 441 965 c 1,50,51
 387 941 387 941 354 899.5 c 128,-1,52
 321 858 321 858 321 801.5 c 128,-1,53
 321 745 321 745 373 700 c 128,-1,54
 425 655 425 655 537 609 c 1,55,56
 560 598 560 598 596 584 c 1,44,45
EndSplineSet
EndChar

StartChar: dieresis
Encoding: 168 168 106
Width: 771
GlyphClass: 2
Flags: HW
LayerCount: 2
Fore
SplineSet
97 1244 m 1,0,-1
 97 1479 l 1,1,-1
 272 1479 l 1,2,-1
 272 1244 l 1,3,-1
 97 1244 l 1,0,-1
503 1244 m 1,4,-1
 503 1479 l 1,5,-1
 680 1479 l 1,6,-1
 680 1244 l 1,7,-1
 503 1244 l 1,4,-1
EndSplineSet
EndChar

StartChar: copyright
Encoding: 169 169 107
Width: 1788
GlyphClass: 2
Flags: HW
LayerCount: 2
Fore
SplineSet
1193 343 m 1,0,1
 1069 262 1069 262 872.5 262 c 128,-1,2
 676 262 676 262 543.5 403.5 c 128,-1,3
 411 545 411 545 411 762 c 0,4,5
 411 904 411 904 469.5 1019 c 128,-1,6
 528 1134 528 1134 636.5 1200.5 c 128,-1,7
 745 1267 745 1267 905 1267 c 128,-1,8
 1065 1267 1065 1267 1191 1181 c 1,9,-1
 1137 1080 l 1,10,11
 1032 1147 1032 1147 880 1147 c 128,-1,12
 728 1147 728 1147 640 1039.5 c 128,-1,13
 552 932 552 932 552 762 c 128,-1,14
 552 592 552 592 643 486 c 128,-1,15
 734 380 734 380 897 380 c 0,16,17
 960 380 960 380 1031.5 399 c 128,-1,18
 1103 418 1103 418 1151 449 c 1,19,-1
 1193 343 l 1,0,1
883 73 m 0,20,21
 1086 73 1086 73 1241.5 166 c 128,-1,22
 1397 259 1397 259 1477.5 414 c 128,-1,23
 1558 569 1558 569 1558 734 c 128,-1,24
 1558 899 1558 899 1510 1024 c 128,-1,25
 1462 1149 1462 1149 1376 1242.5 c 128,-1,26
 1290 1336 1290 1336 1161.5 1390.5 c 128,-1,27
 1033 1445 1033 1445 882.5 1445 c 128,-1,28
 732 1445 732 1445 606.5 1390.5 c 128,-1,29
 481 1336 481 1336 396 1243 c 0,30,31
 216 1046 216 1046 216 761 c 0,32,33
 216 471 216 471 396 275 c 0,34,35
 482 182 482 182 608 127.5 c 128,-1,36
 734 73 734 73 883 73 c 0,20,21
1183.5 30.5 m 128,-1,38
 1041 -24 1041 -24 901 -24 c 128,-1,39
 761 -24 761 -24 645.5 10 c 128,-1,40
 530 44 530 44 432 111 c 128,-1,41
 334 178 334 178 260 271 c 0,42,43
 102 470 102 470 102 760 c 0,44,45
 102 1183 102 1183 430 1407 c 0,46,47
 627 1542 627 1542 880 1542 c 0,48,49
 1038 1542 1038 1542 1181 1487.5 c 128,-1,50
 1324 1433 1324 1433 1433.5 1334.5 c 128,-1,51
 1543 1236 1543 1236 1608 1086.5 c 128,-1,52
 1673 937 1673 937 1673 759 c 128,-1,53
 1673 581 1673 581 1608.5 431 c 128,-1,54
 1544 281 1544 281 1435 183 c 128,-1,37
 1326 85 1326 85 1183.5 30.5 c 128,-1,38
EndSplineSet
EndChar

StartChar: ordfeminine
Encoding: 170 170 108
Width: 780
GlyphClass: 2
Flags: HW
LayerCount: 2
Fore
SplineSet
529 884 m 1,0,1
 460 785 460 785 306 785 c 1,2,3
 226 785 226 785 162.5 843.5 c 128,-1,4
 99 902 99 902 99 1003 c 0,5,6
 98 1127 98 1127 200 1178 c 0,7,8
 290 1224 290 1224 432 1238 c 0,9,10
 466 1242 466 1242 523 1247 c 1,11,-1
 523 1273 l 1,12,13
 521 1355 521 1355 492.5 1390 c 128,-1,14
 464 1425 464 1425 396 1425 c 0,15,16
 267 1425 267 1425 163 1353 c 1,17,-1
 112 1448 l 1,18,19
 228 1549 228 1549 408 1549 c 0,20,21
 522 1549 522 1549 593.5 1487.5 c 128,-1,22
 665 1426 665 1426 665 1296 c 2,23,-1
 664 932 l 2,24,25
 664 856 664 856 667 802 c 1,26,-1
 540 802 l 1,27,-1
 529 884 l 1,0,1
122 582 m 1,28,-1
 122 695 l 1,29,-1
 676 695 l 1,30,-1
 676 582 l 1,31,-1
 122 582 l 1,28,-1
239 1005 m 0,32,33
 239 905 239 905 351 905 c 0,34,35
 407 905 407 905 453.5 951.5 c 128,-1,36
 500 998 500 998 523 1075 c 1,37,-1
 523 1147 l 1,38,39
 383 1130 383 1130 345 1119 c 0,40,41
 239 1089 239 1089 239 1005 c 0,32,33
EndSplineSet
EndChar

StartChar: guillemotleft
Encoding: 171 171 109
Width: 1044
GlyphClass: 2
Flags: HW
LayerCount: 2
Fore
SplineSet
389 142 m 1,0,-1
 95 534 l 1,1,-1
 92 579 l 1,2,-1
 392 979 l 1,3,-1
 569 935 l 1,4,-1
 292 561 l 1,5,-1
 564 188 l 1,6,-1
 389 142 l 1,0,-1
793 142 m 1,7,-1
 479 562 l 1,8,-1
 795 979 l 1,9,-1
 962 935 l 1,10,-1
 695 561 l 1,11,-1
 959 188 l 1,12,-1
 793 142 l 1,7,-1
EndSplineSet
EndChar

StartChar: logicalnot
Encoding: 172 172 110
Width: 1258
GlyphClass: 2
Flags: HW
LayerCount: 2
Fore
SplineSet
963 253 m 1,0,-1
 963 660 l 1,1,-1
 121 660 l 1,2,-1
 121 830 l 1,3,-1
 1128 830 l 1,4,-1
 1128 253 l 1,5,-1
 963 253 l 1,0,-1
EndSplineSet
EndChar

StartChar: uni00AD
Encoding: 173 173 111
Width: 838
GlyphClass: 2
Flags: HW
LayerCount: 2
Fore
SplineSet
91 314 m 1,0,-1
 91 493 l 1,1,-1
 750 493 l 1,2,-1
 750 314 l 1,3,-1
 91 314 l 1,0,-1
EndSplineSet
EndChar

StartChar: registered
Encoding: 174 174 112
Width: 1776
GlyphClass: 2
Flags: HW
LayerCount: 2
Fore
SplineSet
576 285 m 1,0,-1
 576 1250 l 1,1,-1
 857 1250 l 2,2,3
 1254 1250 1254 1250 1254 984 c 0,4,5
 1254 874 1254 874 1199 807 c 128,-1,6
 1144 740 1144 740 1018 719 c 1,7,8
 1070 667 1070 667 1115.5 586 c 128,-1,9
 1161 505 1161 505 1207.5 421 c 128,-1,10
 1254 337 1254 337 1284 285 c 1,11,-1
 1127 285 l 1,12,13
 1008 502 1008 502 982 550 c 0,14,15
 914 677 914 677 883 701 c 1,16,-1
 716 701 l 1,17,-1
 716 285 l 1,18,-1
 576 285 l 1,0,-1
716 827 m 1,19,-1
 839 827 l 2,20,21
 974 827 974 827 1036.5 858 c 128,-1,22
 1099 889 1099 889 1099 979 c 0,23,24
 1098 1052 1098 1052 1058 1086 c 0,25,26
 1024 1114 1024 1114 958 1118 c 128,-1,27
 892 1122 892 1122 829 1122 c 2,28,-1
 716 1122 l 1,29,-1
 716 827 l 1,19,-1
908 73 m 0,30,31
 1084 73 1084 73 1239.5 166 c 128,-1,32
 1395 259 1395 259 1475.5 414 c 128,-1,33
 1556 569 1556 569 1556 734 c 128,-1,34
 1556 899 1556 899 1508.5 1024 c 128,-1,35
 1461 1149 1461 1149 1375 1242.5 c 128,-1,36
 1289 1336 1289 1336 1160.5 1390.5 c 128,-1,37
 1032 1445 1032 1445 881.5 1445 c 128,-1,38
 731 1445 731 1445 606 1390.5 c 128,-1,39
 481 1336 481 1336 396 1243 c 0,40,41
 216 1046 216 1046 216 761 c 0,42,43
 216 472 216 472 396 275 c 0,44,45
 580 73 580 73 908 73 c 0,30,31
1182.5 30.5 m 128,-1,47
 1040 -24 1040 -24 900 -24 c 128,-1,48
 760 -24 760 -24 645 10 c 128,-1,49
 530 44 530 44 432 111 c 128,-1,50
 334 178 334 178 260 271 c 0,51,52
 102 470 102 470 102 760 c 0,53,54
 102 1180 102 1180 430 1406 c 0,55,56
 627 1542 627 1542 879 1542 c 0,57,58
 1037 1542 1037 1542 1180 1487.5 c 128,-1,59
 1323 1433 1323 1433 1432 1334.5 c 128,-1,60
 1541 1236 1541 1236 1606 1087 c 128,-1,61
 1671 938 1671 938 1671 759.5 c 128,-1,62
 1671 581 1671 581 1606.5 431 c 128,-1,63
 1542 281 1542 281 1433.5 183 c 128,-1,46
 1325 85 1325 85 1182.5 30.5 c 128,-1,47
EndSplineSet
EndChar

StartChar: macron
Encoding: 175 175 113
Width: 981
GlyphClass: 2
Flags: HW
LayerCount: 2
Fore
SplineSet
145 1435 m 1,0,-1
 145 1574 l 1,1,-1
 842 1574 l 1,2,-1
 842 1435 l 1,3,-1
 145 1435 l 1,0,-1
EndSplineSet
EndChar

StartChar: degree
Encoding: 176 176 114
Width: 848
GlyphClass: 2
Flags: HW
LayerCount: 2
Fore
SplineSet
426 1004 m 128,-1,1
 498 1004 498 1004 549.5 1054.5 c 128,-1,2
 601 1105 601 1105 601 1182.5 c 128,-1,3
 601 1260 601 1260 549.5 1309.5 c 128,-1,4
 498 1359 498 1359 426.5 1359 c 128,-1,5
 355 1359 355 1359 302.5 1309.5 c 128,-1,6
 250 1260 250 1260 250 1182.5 c 128,-1,7
 250 1105 250 1105 302 1054.5 c 128,-1,0
 354 1004 354 1004 426 1004 c 128,-1,1
651 970 m 128,-1,9
 563 879 563 879 425.5 879 c 128,-1,10
 288 879 288 879 200 969 c 128,-1,11
 112 1059 112 1059 112 1184 c 128,-1,12
 112 1309 112 1309 200 1396.5 c 128,-1,13
 288 1484 288 1484 425 1484 c 128,-1,14
 562 1484 562 1484 650.5 1396.5 c 128,-1,15
 739 1309 739 1309 739 1185 c 128,-1,8
 739 1061 739 1061 651 970 c 128,-1,9
EndSplineSet
EndChar

StartChar: plusminus
Encoding: 177 177 115
Width: 1248
GlyphClass: 2
Flags: HW
LayerCount: 2
Fore
SplineSet
539 248 m 1,0,-1
 539 641 l 1,1,-1
 152 641 l 1,2,-1
 152 810 l 1,3,-1
 538 810 l 1,4,-1
 538 1200 l 1,5,-1
 708 1200 l 1,6,-1
 708 810 l 1,7,-1
 1099 810 l 1,8,-1
 1099 641 l 1,9,-1
 710 641 l 1,10,-1
 710 248 l 1,11,-1
 539 248 l 1,0,-1
152 0 m 1,12,-1
 152 161 l 1,13,-1
 1099 161 l 1,14,-1
 1099 0 l 1,15,-1
 152 0 l 1,12,-1
EndSplineSet
EndChar

StartChar: uni00B2
Encoding: 178 178 116
Width: 801
GlyphClass: 2
Flags: HW
LayerCount: 2
Fore
SplineSet
140 609 m 1,0,-1
 140 740 l 1,1,2
 521 1078 521 1078 521 1225 c 0,3,4
 521 1281 521 1281 483.5 1314.5 c 128,-1,5
 446 1348 446 1348 390.5 1348 c 128,-1,6
 335 1348 335 1348 287 1314 c 128,-1,7
 239 1280 239 1280 209 1221 c 1,8,-1
 139 1325 l 1,9,10
 227 1490 227 1490 406 1490 c 0,11,12
 513 1490 513 1490 587 1418 c 128,-1,13
 661 1346 661 1346 661 1229 c 0,14,15
 661 1134 661 1134 627.5 1074 c 128,-1,16
 594 1014 594 1014 572.5 982 c 128,-1,17
 551 950 551 950 506 902 c 0,18,19
 439 831 439 831 345 744 c 1,20,-1
 661 744 l 1,21,-1
 653 609 l 1,22,-1
 140 609 l 1,0,-1
EndSplineSet
EndChar

StartChar: uni00B3
Encoding: 179 179 117
Width: 780
GlyphClass: 2
Flags: HW
LayerCount: 2
Fore
SplineSet
368 1375 m 0,0,1
 266 1375 266 1375 182 1302 c 1,2,-1
 132 1409 l 1,3,4
 233 1508 233 1508 357.5 1508 c 128,-1,5
 482 1508 482 1508 556 1446 c 0,6,7
 630 1385 630 1385 630 1268 c 0,8,9
 630 1146 630 1146 519 1095 c 1,10,11
 578 1068 578 1068 614.5 1013.5 c 128,-1,12
 651 959 651 959 651 886 c 0,13,14
 651 761 651 761 568.5 688.5 c 128,-1,15
 486 616 486 616 357 616 c 128,-1,16
 228 616 228 616 128 708 c 1,17,-1
 180 823 l 1,18,19
 216 787 216 787 266.5 766 c 128,-1,20
 317 745 317 745 373.5 745 c 128,-1,21
 430 745 430 745 471.5 783 c 128,-1,22
 513 821 513 821 513 889 c 0,23,24
 513 1024 513 1024 323 1024 c 1,25,-1
 260 1023 l 1,26,-1
 260 1155 l 1,27,-1
 323 1155 l 2,28,29
 487 1155 487 1155 487 1268 c 0,30,31
 487 1319 487 1319 456 1347 c 128,-1,32
 425 1375 425 1375 368 1375 c 0,0,1
EndSplineSet
EndChar

StartChar: acute
Encoding: 180 180 118
Width: 628
GlyphClass: 2
Flags: HW
LayerCount: 2
Fore
SplineSet
162 1220 m 1,0,-1
 340 1606 l 1,1,-1
 617 1606 l 1,2,-1
 298 1220 l 1,3,-1
 162 1220 l 1,0,-1
EndSplineSet
EndChar

StartChar: paragraph
Encoding: 182 182 119
Width: 1139
GlyphClass: 2
Flags: HW
LayerCount: 2
Fore
SplineSet
407 -154 m 1,0,-1
 407 812 l 1,1,2
 250 820 250 820 149 926 c 128,-1,3
 48 1032 48 1032 48 1185 c 0,4,5
 48 1338 48 1338 178 1429.5 c 128,-1,6
 308 1521 308 1521 540 1521 c 2,7,-1
 980 1521 l 1,8,-1
 980 1368 l 1,9,-1
 901 1368 l 1,10,-1
 901 -154 l 1,11,-1
 759 -154 l 1,12,-1
 759 1368 l 1,13,-1
 569 1368 l 1,14,-1
 569 -154 l 1,15,-1
 407 -154 l 1,0,-1
EndSplineSet
EndChar

StartChar: periodcentered
Encoding: 183 183 120
Width: 443
GlyphClass: 2
Flags: HW
LayerCount: 2
Fore
SplineSet
118 521 m 1,0,-1
 118 749 l 1,1,-1
 325 749 l 1,2,-1
 325 521 l 1,3,-1
 118 521 l 1,0,-1
EndSplineSet
EndChar

StartChar: cedilla
Encoding: 184 184 121
Width: 592
GlyphClass: 2
Flags: HW
LayerCount: 2
Fore
SplineSet
86 -381 m 1,0,-1
 204 20 l 1,1,-1
 321 20 l 1,2,-1
 270 -381 l 1,3,-1
 86 -381 l 1,0,-1
EndSplineSet
EndChar

StartChar: uni00B9
Encoding: 185 185 122
Width: 677
GlyphClass: 2
Flags: HW
LayerCount: 2
Fore
SplineSet
143 623 m 1,0,-1
 143 748 l 1,1,-1
 274 748 l 1,2,-1
 274 1352 l 1,3,4
 261 1344 261 1344 197.5 1312.5 c 128,-1,5
 134 1281 134 1281 127 1277 c 1,6,-1
 127 1404 l 1,7,8
 167 1423 167 1423 229.5 1458.5 c 128,-1,9
 292 1494 292 1494 308 1510 c 1,10,-1
 430 1509 l 1,11,-1
 430 748 l 1,12,-1
 563 748 l 1,13,-1
 563 623 l 1,14,-1
 143 623 l 1,0,-1
EndSplineSet
EndChar

StartChar: ordmasculine
Encoding: 186 186 123
Width: 881
GlyphClass: 2
Flags: HW
LayerCount: 2
Fore
SplineSet
299.5 985.5 m 128,-1,1
 349 918 349 918 443.5 918 c 128,-1,2
 538 918 538 918 587 986 c 128,-1,3
 636 1054 636 1054 636 1163 c 128,-1,4
 636 1272 636 1272 586 1341.5 c 128,-1,5
 536 1411 536 1411 442.5 1411 c 128,-1,6
 349 1411 349 1411 299.5 1341.5 c 128,-1,7
 250 1272 250 1272 250 1162.5 c 128,-1,0
 250 1053 250 1053 299.5 985.5 c 128,-1,1
695 889 m 128,-1,9
 603 782 603 782 442 782 c 128,-1,10
 281 782 281 782 189 889 c 128,-1,11
 97 996 97 996 97 1165 c 128,-1,12
 97 1334 97 1334 190.5 1441 c 128,-1,13
 284 1548 284 1548 444 1548 c 128,-1,14
 604 1548 604 1548 695.5 1440.5 c 128,-1,15
 787 1333 787 1333 787 1164.5 c 128,-1,8
 787 996 787 996 695 889 c 128,-1,9
EndSplineSet
EndChar

StartChar: guillemotright
Encoding: 187 187 124
Width: 1096
GlyphClass: 2
Flags: HW
LayerCount: 2
Fore
SplineSet
275 142 m 1,0,-1
 108 188 l 1,1,-1
 375 562 l 1,2,-1
 110 935 l 1,3,-1
 277 979 l 1,4,-1
 591 560 l 1,5,-1
 275 142 l 1,0,-1
690 142 m 1,6,-1
 517 188 l 1,7,-1
 790 562 l 1,8,-1
 521 935 l 1,9,-1
 694 979 l 1,10,-1
 999 560 l 1,11,-1
 690 142 l 1,6,-1
EndSplineSet
EndChar

StartChar: onequarter
Encoding: 188 188 125
Width: 1674
GlyphClass: 2
Flags: HW
LayerCount: 2
Fore
SplineSet
118 623 m 1,0,-1
 118 748 l 1,1,-1
 249 748 l 1,2,-1
 249 1352 l 1,3,4
 236 1344 236 1344 172.5 1312.5 c 128,-1,5
 109 1281 109 1281 102 1277 c 1,6,-1
 102 1404 l 1,7,8
 142 1423 142 1423 204.5 1458.5 c 128,-1,9
 267 1494 267 1494 283 1510 c 1,10,-1
 405 1509 l 1,11,-1
 405 748 l 1,12,-1
 538 748 l 1,13,-1
 538 623 l 1,14,-1
 118 623 l 1,0,-1
1353 24 m 1,15,-1
 1353 209 l 1,16,-1
 956 209 l 1,17,-1
 956 331 l 1,18,-1
 1340 881 l 1,19,-1
 1489 881 l 1,20,-1
 1489 336 l 1,21,-1
 1594 336 l 1,22,-1
 1600 209 l 1,23,-1
 1488 209 l 1,24,-1
 1487 24 l 1,25,-1
 1353 24 l 1,15,-1
277 0 m 1,26,-1
 1252 1506 l 1,27,-1
 1419 1506 l 1,28,-1
 447 0 l 1,29,-1
 277 0 l 1,26,-1
1125 336 m 1,30,-1
 1352 336 l 1,31,32
 1352 661 1352 661 1353 678 c 1,33,-1
 1125 336 l 1,30,-1
EndSplineSet
EndChar

StartChar: onehalf
Encoding: 189 189 126
Width: 1706
GlyphClass: 2
Flags: HW
LayerCount: 2
Fore
SplineSet
130 623 m 1,0,-1
 130 739 l 1,1,-1
 261 739 l 1,2,-1
 261 1362 l 1,3,4
 210 1328 210 1328 114 1277 c 1,5,-1
 114 1404 l 1,6,7
 146 1420 146 1420 205 1456.5 c 128,-1,8
 264 1493 264 1493 280 1510 c 1,9,-1
 416 1509 l 1,10,-1
 416 739 l 1,11,-1
 549 739 l 1,12,-1
 549 623 l 1,13,-1
 130 623 l 1,0,-1
1043 -30 m 1,14,-1
 1043 87 l 1,15,16
 1076 118 1076 118 1134.5 171 c 128,-1,17
 1193 224 1193 224 1224 252.5 c 128,-1,18
 1255 281 1255 281 1299.5 324.5 c 128,-1,19
 1344 368 1344 368 1368 397 c 128,-1,20
 1392 426 1392 426 1416 460 c 0,21,22
 1462 524 1462 524 1462 584.5 c 128,-1,23
 1462 645 1462 645 1420.5 682 c 128,-1,24
 1379 719 1379 719 1322.5 719 c 128,-1,25
 1266 719 1266 719 1208.5 691 c 128,-1,26
 1151 663 1151 663 1112 609 c 1,27,-1
 1042 701 l 1,28,29
 1081 773 1081 773 1161 811.5 c 128,-1,30
 1241 850 1241 850 1346.5 850 c 128,-1,31
 1452 850 1452 850 1532 781.5 c 128,-1,32
 1612 713 1612 713 1612 592 c 0,33,34
 1612 497 1612 497 1550 393 c 0,35,36
 1528 356 1528 356 1470 296 c 0,37,38
 1400 224 1400 224 1326 159.5 c 128,-1,39
 1252 95 1252 95 1244 88 c 1,40,-1
 1606 88 l 1,41,-1
 1598 -30 l 1,42,-1
 1043 -30 l 1,14,-1
280 0 m 1,43,-1
 1254 1506 l 1,44,-1
 1423 1506 l 1,45,-1
 449 0 l 1,46,-1
 280 0 l 1,43,-1
EndSplineSet
EndChar

StartChar: threequarters
Encoding: 190 190 127
Width: 1659
GlyphClass: 2
Flags: HW
LayerCount: 2
Fore
SplineSet
460 1268 m 0,0,1
 460 1373 460 1373 347.5 1373 c 128,-1,2
 235 1373 235 1373 153 1302 c 1,3,-1
 96 1407 l 1,4,5
 144 1453 144 1453 211 1481 c 128,-1,6
 278 1509 278 1509 367 1509 c 128,-1,7
 456 1509 456 1509 537 1445.5 c 128,-1,8
 618 1382 618 1382 618 1272 c 0,9,10
 618 1225 618 1225 589.5 1173 c 128,-1,11
 561 1121 561 1121 500 1095 c 1,12,13
 562 1069 562 1069 599.5 1015.5 c 128,-1,14
 637 962 637 962 637 885.5 c 128,-1,15
 637 809 637 809 594 747 c 0,16,17
 509 625 509 625 338 625 c 0,18,19
 202 625 202 625 101 718 c 1,20,-1
 151 831 l 1,21,22
 225 757 225 757 332 757 c 0,23,24
 399 757 399 757 441 793.5 c 128,-1,25
 483 830 483 830 483 895 c 0,26,27
 483 1024 483 1024 297 1024 c 1,28,-1
 233 1023 l 1,29,-1
 233 1155 l 1,30,-1
 296 1155 l 2,31,32
 460 1155 460 1155 460 1268 c 0,0,1
1336 26 m 1,33,-1
 1336 216 l 1,34,-1
 938 216 l 1,35,-1
 938 337 l 1,36,-1
 1321 895 l 1,37,-1
 1472 895 l 1,38,-1
 1472 342 l 1,39,-1
 1578 342 l 1,40,-1
 1583 216 l 1,41,-1
 1471 216 l 1,42,-1
 1470 26 l 1,43,-1
 1336 26 l 1,33,-1
303 0 m 1,44,-1
 1276 1506 l 1,45,-1
 1448 1506 l 1,46,-1
 474 0 l 1,47,-1
 303 0 l 1,44,-1
1107 342 m 1,48,-1
 1334 342 l 1,49,50
 1334 657 1334 657 1336 691 c 1,51,-1
 1107 342 l 1,48,-1
EndSplineSet
EndChar

StartChar: AE
Encoding: 198 198 135
Width: 2054
GlyphClass: 2
Flags: HW
LayerCount: 2
Fore
SplineSet
60 0 m 1,0,-1
 937 1521 l 1,1,-1
 1917 1521 l 1,2,-1
 1908 1342 l 1,3,-1
 1256 1342 l 1,4,-1
 1292 865 l 1,5,-1
 1879 865 l 1,6,-1
 1879 687 l 1,7,-1
 1312 687 l 1,8,-1
 1352 178 l 1,9,-1
 1944 178 l 1,10,-1
 1937 0 l 1,11,-1
 1138 0 l 1,12,-1
 1107 399 l 1,13,-1
 523 399 l 1,14,-1
 302 0 l 1,15,-1
 60 0 l 1,0,-1
612 580 m 1,16,-1
 1088 580 l 1,17,-1
 1033 1315 l 1,18,-1
 612 580 l 1,16,-1
EndSplineSet
EndChar

StartChar: Eth
Encoding: 208 208 145
Width: 1523
GlyphClass: 2
Flags: HW
LayerCount: 2
Fore
SplineSet
364 182 m 1,0,-1
 636 182 l 2,1,2
 904 182 904 182 1049.5 322 c 128,-1,3
 1195 462 1195 462 1195 729 c 0,4,5
 1194 1047 1194 1047 1020 1175 c 0,6,7
 856 1295 856 1295 541 1295 c 2,8,-1
 364 1295 l 1,9,-1
 364 830 l 1,10,-1
 583 830 l 1,11,-1
 583 672 l 1,12,-1
 364 672 l 1,13,-1
 364 182 l 1,0,-1
138 0 m 1,14,-1
 138 672 l 1,15,-1
 16 672 l 1,16,-1
 16 830 l 1,17,-1
 138 830 l 1,18,-1
 138 1478 l 1,19,-1
 521 1478 l 2,20,21
 1040 1478 1040 1478 1262 1236 c 0,22,23
 1428 1056 1428 1056 1427 733 c 0,24,25
 1427 374 1427 374 1203 184 c 0,26,27
 986 0 986 0 619 0 c 2,28,-1
 138 0 l 1,14,-1
EndSplineSet
EndChar

StartChar: multiply
Encoding: 215 215 152
Width: 1209
GlyphClass: 2
Flags: HW
LayerCount: 2
Fore
SplineSet
734 593 m 1,0,-1
 1023 281 l 1,1,-1
 900 163 l 1,2,-1
 613 465 l 1,3,-1
 325 163 l 1,4,-1
 203 281 l 1,5,-1
 491 593 l 1,6,-1
 203 905 l 1,7,-1
 324 1023 l 1,8,-1
 613 719 l 1,9,-1
 901 1023 l 1,10,-1
 1023 905 l 1,11,-1
 734 593 l 1,0,-1
EndSplineSet
EndChar

StartChar: Oslash
Encoding: 216 216 153
Width: 1625
GlyphClass: 2
Flags: HW
LayerCount: 2
Fore
SplineSet
485 -221 m 1,0,-1
 373 -178 l 1,1,-1
 469 51 l 1,2,3
 291 137 291 137 194 313.5 c 128,-1,4
 97 490 97 490 97 735 c 0,5,6
 97 1087 97 1087 291 1290.5 c 128,-1,7
 485 1494 485 1494 815 1494 c 0,8,9
 947 1494 947 1494 1061 1459 c 1,10,-1
 1152 1675 l 1,11,-1
 1270 1632 l 1,12,-1
 1177 1411 l 1,13,14
 1345 1322 1345 1322 1437.5 1147.5 c 128,-1,15
 1530 973 1530 973 1530 734 c 0,16,17
 1530 389 1530 389 1336 184 c 128,-1,18
 1142 -21 1142 -21 813 -21 c 0,19,20
 688 -21 688 -21 582 9 c 1,21,-1
 485 -221 l 1,0,-1
547 232 m 1,22,-1
 986 1283 l 1,23,24
 908 1309 908 1309 815 1309 c 0,25,26
 577 1309 577 1309 452.5 1155.5 c 128,-1,27
 328 1002 328 1002 328 732 c 0,28,29
 328 370 328 370 547 232 c 1,22,-1
814 162 m 0,30,31
 1053 162 1053 162 1176.5 314.5 c 128,-1,32
 1300 467 1300 467 1300 732 c 0,33,34
 1300 1085 1300 1085 1098 1228 c 1,35,-1
 657 183 l 1,36,37
 735 162 735 162 814 162 c 0,30,31
EndSplineSet
EndChar

StartChar: Thorn
Encoding: 222 222 159
Width: 1310
GlyphClass: 2
Flags: HW
LayerCount: 2
Fore
SplineSet
164 6 m 1,0,-1
 164 1473 l 1,1,-1
 365 1473 l 1,2,-1
 365 1223 l 1,3,-1
 669 1223 l 2,4,5
 1244 1223 1244 1223 1244 788 c 0,6,7
 1244 577 1244 577 1106.5 458 c 128,-1,8
 969 339 969 339 722 339 c 1,9,-1
 365 343 l 1,10,-1
 365 6 l 1,11,-1
 164 6 l 1,0,-1
365 515 m 1,12,-1
 724 515 l 2,13,14
 885 515 885 515 965 587.5 c 128,-1,15
 1045 660 1045 660 1045 795 c 0,16,17
 1045 930 1045 930 959.5 995 c 128,-1,18
 874 1060 874 1060 689 1060 c 2,19,-1
 365 1060 l 1,20,-1
 365 515 l 1,12,-1
EndSplineSet
EndChar

StartChar: germandbls
Encoding: 223 223 160
Width: 1242
GlyphClass: 2
Flags: HW
LayerCount: 2
Fore
SplineSet
112 0 m 1,0,-1
 112 1034 l 2,1,2
 112 1259 112 1259 230 1382.5 c 128,-1,3
 348 1506 348 1506 558 1506 c 128,-1,4
 768 1506 768 1506 890.5 1415.5 c 128,-1,5
 1013 1325 1013 1325 1013 1161 c 0,6,7
 1013 1077 1013 1077 976 1022 c 0,8,9
 945 975 945 975 921.5 954.5 c 128,-1,10
 898 934 898 934 884.5 922.5 c 128,-1,11
 871 911 871 911 845.5 894 c 0,12,13
 820 876 820 876 806 868 c 0,14,15
 783 854 783 854 722 817 c 1,16,17
 754 796 754 796 817.5 760 c 128,-1,18
 881 724 881 724 923.5 699 c 128,-1,19
 966 674 966 674 1020 633.5 c 128,-1,20
 1074 593 1074 593 1106 554 c 0,21,22
 1184 460 1184 460 1185 346 c 0,23,24
 1185 171 1185 171 1077 85.5 c 128,-1,25
 969 0 969 0 790 0 c 2,26,-1
 474 0 l 1,27,-1
 496 165 l 1,28,-1
 769 165 l 2,29,30
 859 165 859 165 909 213 c 128,-1,31
 959 261 959 261 959 326.5 c 128,-1,32
 959 392 959 392 935.5 434 c 128,-1,33
 912 476 912 476 867 511.5 c 128,-1,34
 822 547 822 547 781 572.5 c 128,-1,35
 740 598 740 598 679.5 630.5 c 128,-1,36
 619 663 619 663 590 682 c 0,37,38
 505 736 505 736 505 799.5 c 128,-1,39
 505 863 505 863 574 917 c 0,40,41
 595 934 595 934 632 958.5 c 128,-1,42
 669 983 669 983 692.5 1000 c 0,43,44
 716 1018 716 1018 741 1042 c 0,45,46
 791 1091 791 1091 791 1166 c 128,-1,47
 791 1241 791 1241 730 1287 c 128,-1,48
 669 1333 669 1333 576 1333 c 0,49,50
 440 1333 440 1333 384 1256.5 c 128,-1,51
 328 1180 328 1180 328 1035 c 2,52,-1
 328 0 l 1,53,-1
 112 0 l 1,0,-1
EndSplineSet
EndChar

StartChar: ae
Encoding: 230 230 167
Width: 1676
GlyphClass: 2
Flags: HW
LayerCount: 2
Fore
SplineSet
846 126 m 1,0,1
 651 -24 651 -24 396 -24 c 0,2,3
 260 -24 260 -24 168 64 c 128,-1,4
 76 152 76 152 76 309 c 0,5,6
 76 464 76 464 194 528 c 0,7,8
 273 571 273 571 360 585 c 0,9,10
 474 604 474 604 628 618 c 2,11,-1
 703 624 l 1,12,-1
 703 763 l 2,13,14
 703 866 703 866 661.5 913 c 128,-1,15
 620 960 620 960 522 960 c 0,16,17
 520 960 520 960 518 961 c 0,18,19
 340 961 340 961 176 882 c 1,20,-1
 133 1042 l 1,21,22
 301 1130 301 1130 522 1130 c 0,23,24
 647 1130 647 1130 732 1083 c 128,-1,25
 817 1036 817 1036 843 947 c 1,26,27
 897 1033 897 1033 992 1081.5 c 128,-1,28
 1087 1130 1087 1130 1195 1130 c 128,-1,29
 1303 1130 1303 1130 1380.5 1091 c 128,-1,30
 1458 1052 1458 1052 1502 984 c 0,31,32
 1590 849 1590 849 1591 652 c 0,33,34
 1591 593 1591 593 1553 566.5 c 128,-1,35
 1515 540 1515 540 1421 536 c 0,36,37
 1411 535 1411 535 1175.5 520.5 c 128,-1,38
 940 506 940 506 914 504 c 1,39,40
 933 146 933 146 1215 145 c 0,41,42
 1304 145 1304 145 1385 173.5 c 128,-1,43
 1466 202 1466 202 1518 240 c 1,44,-1
 1581 97 l 1,45,46
 1429 -23 1429 -23 1201 -23 c 128,-1,47
 973 -23 973 -23 846 126 c 1,0,1
704 486 m 1,48,49
 648 478 648 478 625 478 c 1,50,51
 431 460 431 460 355 421.5 c 128,-1,52
 279 383 279 383 279 299 c 0,53,54
 279 133 279 133 434 133 c 0,55,56
 559 133 559 133 764 243 c 1,57,58
 708 347 708 347 704 486 c 1,48,49
918 631 m 1,59,-1
 1391 665 l 1,60,61
 1392 677 1392 677 1392 686 c 0,62,63
 1391 818 1391 818 1346.5 890.5 c 128,-1,64
 1302 963 1302 963 1190.5 963 c 128,-1,65
 1079 963 1079 963 1003.5 877 c 128,-1,66
 928 791 928 791 918 631 c 1,59,-1
EndSplineSet
EndChar

StartChar: eth
Encoding: 240 240 177
Width: 1216
GlyphClass: 2
Flags: HW
LayerCount: 2
Fore
SplineSet
229.5 118.5 m 128,-1,1
 85 260 85 260 85 479.5 c 128,-1,2
 85 699 85 699 218.5 830.5 c 128,-1,3
 352 962 352 962 575 962 c 0,4,5
 674 962 674 962 783 902 c 1,6,7
 762 942 762 942 676.5 1046.5 c 128,-1,8
 591 1151 591 1151 522 1222 c 1,9,-1
 262 1116 l 1,10,-1
 206 1250 l 1,11,-1
 418 1334 l 1,12,-1
 200 1546 l 1,13,-1
 463 1546 l 1,14,-1
 595 1411 l 1,15,-1
 863 1517 l 1,16,-1
 921 1386 l 1,17,-1
 696 1298 l 1,18,19
 931 1040 931 1040 1035.5 862 c 128,-1,20
 1140 684 1140 684 1140 486 c 0,21,22
 1140 268 1140 268 1010 126 c 0,23,24
 874 -22 874 -22 624 -22.5 c 128,-1,0
 374 -23 374 -23 229.5 118.5 c 128,-1,1
382.5 243 m 128,-1,26
 467 148 467 148 616.5 148 c 128,-1,27
 766 148 766 148 848.5 237.5 c 128,-1,28
 931 327 931 327 931 469.5 c 128,-1,29
 931 612 931 612 846 706.5 c 128,-1,30
 761 801 761 801 612 801 c 128,-1,31
 463 801 463 801 380.5 712 c 128,-1,32
 298 623 298 623 298 480.5 c 128,-1,25
 298 338 298 338 382.5 243 c 128,-1,26
EndSplineSet
EndChar

StartChar: divide
Encoding: 247 247 184
Width: 1343
GlyphClass: 2
Flags: HW
LayerCount: 2
Fore
SplineSet
544 22 m 1,0,-1
 544 266 l 1,1,-1
 781 266 l 1,2,-1
 781 22 l 1,3,-1
 544 22 l 1,0,-1
141 505 m 1,4,-1
 141 674 l 1,5,-1
 1193 674 l 1,6,-1
 1193 505 l 1,7,-1
 141 505 l 1,4,-1
544 904 m 1,8,-1
 544 1149 l 1,9,-1
 801 1149 l 1,10,-1
 801 904 l 1,11,-1
 544 904 l 1,8,-1
EndSplineSet
EndChar

StartChar: oslash
Encoding: 248 248 185
Width: 1196
GlyphClass: 2
Flags: HW
LayerCount: 2
Fore
SplineSet
298 -224 m 1,0,-1
 232 -188 l 1,1,-1
 334 44 l 1,2,3
 212 112 212 112 146.5 244.5 c 128,-1,4
 81 377 81 377 81 549 c 0,5,6
 81 807 81 807 218.5 963 c 128,-1,7
 356 1119 356 1119 603 1119 c 0,8,9
 708 1119 708 1119 798 1088 c 1,10,-1
 898 1296 l 1,11,-1
 971 1269 l 1,12,-1
 869 1055 l 1,13,14
 989 987 989 987 1053 855.5 c 128,-1,15
 1117 724 1117 724 1117 551 c 0,16,17
 1117 295 1117 295 979.5 138 c 128,-1,18
 842 -19 842 -19 596 -19 c 0,19,20
 490 -19 490 -19 403 13 c 1,21,-1
 298 -224 l 1,0,-1
408 211 m 1,22,-1
 728 932 l 1,23,24
 672 959 672 959 599 959 c 0,25,26
 451 959 451 959 372.5 849.5 c 128,-1,27
 294 740 294 740 294 528 c 0,28,29
 294 316 294 316 408 211 c 1,22,-1
601 141 m 0,30,31
 750 141 750 141 827 250 c 128,-1,32
 904 359 904 359 904 572 c 0,33,34
 904 785 904 785 794 888 c 1,35,-1
 473 167 l 1,36,37
 530 141 530 141 601 141 c 0,30,31
EndSplineSet
EndChar

StartChar: thorn
Encoding: 254 254 191
Width: 1250
GlyphClass: 2
Flags: HW
LayerCount: 2
Fore
SplineSet
143 -444 m 1,0,-1
 143 1209 l 1,1,-1
 141 1504 l 1,2,-1
 342 1504 l 1,3,-1
 342 936 l 1,4,5
 386 1001 386 1001 475 1048.5 c 128,-1,6
 564 1096 564 1096 680 1096 c 0,7,8
 901 1095 901 1095 1028.5 937.5 c 128,-1,9
 1156 780 1156 780 1156 539 c 0,10,11
 1156 310 1156 310 1042 149 c 0,12,13
 986 70 986 70 895 24 c 128,-1,14
 804 -22 804 -22 683 -22 c 128,-1,15
 562 -22 562 -22 471 25.5 c 128,-1,16
 380 73 380 73 342 138 c 1,17,-1
 342 -444 l 1,18,-1
 143 -444 l 1,0,-1
515.5 177.5 m 128,-1,20
 579 147 579 147 652 147 c 128,-1,21
 725 147 725 147 776 170 c 128,-1,22
 827 193 827 193 859 231 c 0,23,24
 890 269 890 269 912 321 c 0,25,26
 952 417 952 417 952 516 c 128,-1,27
 952 615 952 615 937 681.5 c 128,-1,28
 922 748 922 748 890 806 c 0,29,30
 820 932 820 932 666 931 c 0,31,32
 559 932 559 932 484 878 c 0,33,34
 340 775 340 775 340 540 c 0,35,36
 340 370 340 370 414 262 c 0,37,19
 452 208 452 208 515.5 177.5 c 128,-1,20
EndSplineSet
EndChar

StartChar: dcroat
Encoding: 273 273 208
Width: 1204
GlyphClass: 2
Flags: HW
LayerCount: 2
Fore
SplineSet
876 163 m 1,0,1
 773 -22 773 -22 532 -22 c 0,2,3
 531 -22 531 -22 530 -22 c 0,4,5
 400 -22 400 -22 290.5 54.5 c 128,-1,6
 181 131 181 131 124.5 262.5 c 128,-1,7
 68 394 68 394 68 556.5 c 128,-1,8
 68 719 68 719 124.5 847 c 128,-1,9
 181 975 181 975 290.5 1052.5 c 128,-1,10
 400 1130 400 1130 530 1130 c 128,-1,11
 660 1130 660 1130 749 1080.5 c 128,-1,12
 838 1031 838 1031 877 953 c 1,13,-1
 877 1204 l 1,14,-1
 621 1204 l 1,15,-1
 621 1346 l 1,16,-1
 877 1346 l 1,17,-1
 877 1494 l 1,18,-1
 1092 1512 l 1,19,-1
 1092 1346 l 1,20,-1
 1203 1346 l 1,21,-1
 1203 1204 l 1,22,-1
 1092 1204 l 1,23,-1
 1092 0 l 1,24,-1
 891 0 l 1,25,-1
 876 163 l 1,0,1
358.5 259.5 m 128,-1,27
 436 150 436 150 577.5 150 c 128,-1,28
 719 150 719 150 799.5 255.5 c 128,-1,29
 880 361 880 361 880 552.5 c 128,-1,30
 880 744 880 744 799.5 851 c 128,-1,31
 719 958 719 958 578 958 c 128,-1,32
 437 958 437 958 359 848 c 128,-1,33
 281 738 281 738 281 553.5 c 128,-1,26
 281 369 281 369 358.5 259.5 c 128,-1,27
EndSplineSet
EndChar

StartChar: gcommaaccent
Encoding: 291 291 224
Width: 1231
GlyphClass: 2
Flags: HW
LayerCount: 2
Fore
SplineSet
334 -496 m 1,0,-1
 319 -313 l 1,1,-1
 485 -313 l 2,2,3
 722 -314 722 -314 806 -228 c 0,4,5
 850 -182 850 -182 867.5 -118.5 c 128,-1,6
 885 -55 885 -55 885 39.5 c 128,-1,7
 885 134 885 134 882 165 c 1,8,9
 825 85 825 85 753 43 c 128,-1,10
 681 1 681 1 546.5 1 c 128,-1,11
 412 1 412 1 299.5 78.5 c 128,-1,12
 187 156 187 156 130 280.5 c 128,-1,13
 73 405 73 405 73 554 c 0,14,15
 73 810 73 810 205.5 966.5 c 128,-1,16
 338 1123 338 1123 555.5 1123 c 128,-1,17
 773 1123 773 1123 889 958 c 1,18,-1
 899 1098 l 1,19,-1
 1100 1098 l 1,20,-1
 1100 78 l 2,21,22
 1100 -168 1100 -168 1027 -286 c 0,23,24
 963 -390 963 -390 845 -440 c 0,25,26
 711 -496 711 -496 501 -496 c 2,27,-1
 334 -496 l 1,0,-1
598 164 m 0,28,29
 674 164 674 164 732.5 192.5 c 0,30,31
 790 221 790 221 824 272 c 0,32,33
 888 370 888 370 889 532 c 2,34,-1
 889 590 l 1,35,36
 888 756 888 756 816.5 853 c 128,-1,37
 745 950 745 950 602 950 c 0,38,39
 498 950 498 950 426 894 c 0,40,41
 292 789 292 789 293 558 c 0,42,43
 293 404 293 404 367 288 c 0,44,45
 446 164 446 164 598 164 c 0,28,29
465 1230 m 1,46,-1
 630 1739 l 1,47,-1
 783 1739 l 1,48,-1
 674 1230 l 1,49,-1
 465 1230 l 1,46,-1
EndSplineSet
EndChar

StartChar: Hbar
Encoding: 294 294 227
Width: 1478
GlyphClass: 2
Flags: HW
LayerCount: 2
Fore
SplineSet
138 0 m 1,0,-1
 138 1163 l 1,1,-1
 51 1163 l 1,2,-1
 51 1283 l 1,3,-1
 138 1283 l 1,4,-1
 138 1475 l 1,5,-1
 364 1475 l 1,6,-1
 364 1283 l 1,7,-1
 1116 1283 l 1,8,-1
 1116 1475 l 1,9,-1
 1342 1475 l 1,10,-1
 1342 1283 l 1,11,-1
 1430 1283 l 1,12,-1
 1430 1163 l 1,13,-1
 1342 1163 l 1,14,-1
 1342 0 l 1,15,-1
 1116 0 l 1,16,-1
 1116 675 l 1,17,-1
 364 675 l 1,18,-1
 364 0 l 1,19,-1
 138 0 l 1,0,-1
364 851 m 1,20,-1
 1116 851 l 1,21,-1
 1116 1163 l 1,22,-1
 364 1163 l 1,23,-1
 364 851 l 1,20,-1
EndSplineSet
EndChar

StartChar: hbar
Encoding: 295 295 228
Width: 1153
GlyphClass: 2
Flags: HW
LayerCount: 2
Fore
SplineSet
110 0 m 1,0,-1
 110 1246 l 1,1,-1
 13 1246 l 1,2,-1
 13 1372 l 1,3,-1
 110 1372 l 1,4,-1
 110 1493 l 1,5,-1
 324 1512 l 1,6,-1
 324 1372 l 1,7,-1
 612 1372 l 1,8,-1
 612 1246 l 1,9,-1
 324 1246 l 1,10,-1
 324 962 l 1,11,12
 468 1122 468 1122 699 1122 c 0,13,14
 868 1122 868 1122 961 1008.5 c 128,-1,15
 1054 895 1054 895 1054 666 c 2,16,-1
 1054 0 l 1,17,-1
 839 0 l 1,18,-1
 839 637 l 2,19,20
 839 808 839 808 799.5 879.5 c 128,-1,21
 760 951 760 951 647 951 c 0,22,23
 534 951 534 951 444.5 889 c 128,-1,24
 355 827 355 827 324 746 c 1,25,-1
 324 0 l 1,26,-1
 110 0 l 1,0,-1
EndSplineSet
EndChar

StartChar: dotlessi
Encoding: 305 305 238
Width: 493
GlyphClass: 2
Flags: HW
LayerCount: 2
Fore
SplineSet
132 0 m 1,0,-1
 132 1098 l 1,1,-1
 347 1098 l 1,2,-1
 347 0 l 1,3,-1
 132 0 l 1,0,-1
EndSplineSet
EndChar

StartChar: kgreenlandic
Encoding: 312 312 245
Width: 1114
GlyphClass: 2
Flags: HW
LayerCount: 2
Fore
SplineSet
130 0 m 1,0,-1
 130 1102 l 1,1,-1
 331 1102 l 1,2,-1
 331 618 l 1,3,-1
 785 1102 l 1,4,-1
 1048 1102 l 1,5,-1
 560 575 l 1,6,7
 646 496 646 496 855 261 c 128,-1,8
 1064 26 1064 26 1088 0 c 1,9,-1
 830 0 l 1,10,-1
 378 488 l 1,11,-1
 331 480 l 1,12,-1
 331 0 l 1,13,-1
 130 0 l 1,0,-1
EndSplineSet
EndChar

StartChar: Lslash
Encoding: 321 321 251
Width: 988
GlyphClass: 2
Flags: HW
LayerCount: 2
Fore
SplineSet
139 0 m 1,0,-1
 139 597 l 1,1,-1
 -11 512 l 1,2,-1
 -11 680 l 1,3,-1
 139 766 l 1,4,-1
 139 1478 l 1,5,-1
 365 1478 l 1,6,-1
 365 895 l 1,7,-1
 700 1083 l 1,8,-1
 700 911 l 1,9,-1
 365 725 l 1,10,-1
 365 180 l 1,11,-1
 1001 180 l 1,12,-1
 988 0 l 1,13,-1
 139 0 l 1,0,-1
EndSplineSet
EndChar

StartChar: lslash
Encoding: 322 322 252
Width: 637
GlyphClass: 2
Flags: HW
LayerCount: 2
Fore
SplineSet
649 -4 m 1,0,1
 509 -18 509 -18 461.5 -18 c 128,-1,2
 414 -18 414 -18 366 -9 c 128,-1,3
 318 0 318 0 282.5 17 c 128,-1,4
 247 34 247 34 222.5 64.5 c 128,-1,5
 198 95 198 95 182 130 c 128,-1,6
 166 165 166 165 158 219 c 0,7,8
 144 311 144 311 143 463 c 2,9,-1
 143 637 l 1,10,-1
 31 561 l 1,11,-1
 31 726 l 1,12,-1
 143 803 l 1,13,-1
 143 1492 l 1,14,-1
 357 1512 l 1,15,-1
 357 945 l 1,16,-1
 523 1060 l 1,17,-1
 523 895 l 1,18,-1
 357 780 l 1,19,-1
 357 435 l 2,20,21
 356 252 356 252 378 212 c 0,22,23
 403 167 403 167 439.5 159.5 c 128,-1,24
 476 152 476 152 496.5 152 c 128,-1,25
 517 152 517 152 633 160 c 1,26,-1
 649 -4 l 1,0,1
EndSplineSet
EndChar

StartChar: OE
Encoding: 338 338 265
Width: 2085
GlyphClass: 2
Flags: HW
LayerCount: 2
Fore
SplineSet
819 -21 m 0,0,1
 596 -21 596 -21 430 78 c 128,-1,2
 264 177 264 177 177 351.5 c 128,-1,3
 90 526 90 526 90 753 c 1,4,5
 92 914 92 914 147 1054 c 128,-1,6
 202 1194 202 1194 296 1293 c 128,-1,7
 390 1392 390 1392 522 1448.5 c 128,-1,8
 654 1505 654 1505 805 1505 c 0,9,10
 1016 1505 1016 1505 1159 1397 c 1,11,-1
 1159 1477 l 1,12,-1
 1996 1477 l 1,13,-1
 1979 1295 l 1,14,-1
 1379 1295 l 1,15,-1
 1379 855 l 1,16,-1
 1945 855 l 1,17,-1
 1945 675 l 1,18,-1
 1379 675 l 1,19,-1
 1379 184 l 1,20,-1
 2023 184 l 1,21,-1
 2007 2 l 1,22,-1
 1159 2 l 1,23,-1
 1159 84 l 1,24,25
 1107 42 1107 42 1009 10.5 c 128,-1,26
 911 -21 911 -21 819 -21 c 0,0,1
817 160 m 0,27,28
 819 160 819 160 820 160 c 0,29,30
 920 160 920 160 1014 193 c 128,-1,31
 1108 226 1108 226 1159 267 c 1,32,-1
 1159 1202 l 1,33,34
 1024 1325 1024 1325 813 1325 c 0,35,36
 698 1325 698 1325 604.5 1280 c 0,37,38
 512 1234 512 1234 450 1156 c 0,39,40
 324 995 324 995 319 752 c 1,41,42
 319 440 319 440 490 278 c 0,43,44
 613 161 613 161 817 160 c 0,27,28
EndSplineSet
EndChar

StartChar: oe
Encoding: 339 339 266
Width: 1897
GlyphClass: 2
Flags: HW
LayerCount: 2
Fore
SplineSet
1417 -23 m 0,0,1
 1118 -23 1118 -23 994 192 c 1,2,3
 936 93 936 93 832.5 35 c 128,-1,4
 729 -23 729 -23 597 -23 c 128,-1,5
 465 -23 465 -23 365 22 c 0,6,7
 264 67 264 67 202 146 c 0,8,9
 74 307 74 307 75 549 c 0,10,11
 75 795 75 795 204 955 c 0,12,13
 267 1033 267 1033 367 1077.5 c 128,-1,14
 467 1122 467 1122 600.5 1122 c 128,-1,15
 734 1122 734 1122 836.5 1066 c 128,-1,16
 939 1010 939 1010 998 910 c 1,17,18
 1056 1009 1056 1009 1159.5 1064.5 c 0,19,20
 1264 1120 1264 1120 1402 1121 c 0,21,22
 1404 1121 1404 1121 1405 1121 c 0,23,24
 1541 1121 1541 1121 1638 1053 c 0,25,26
 1827 920 1827 920 1827 590 c 1,27,-1
 1825 509 l 1,28,-1
 1102 509 l 1,29,30
 1103 337 1103 337 1190.5 238.5 c 128,-1,31
 1278 140 1278 140 1435.5 140 c 128,-1,32
 1593 140 1593 140 1742 246 c 1,33,-1
 1805 106 l 1,34,35
 1645 -23 1645 -23 1417 -23 c 0,0,1
592 136 m 128,-1,37
 738 136 738 136 817 251 c 128,-1,38
 896 366 896 366 896 552.5 c 128,-1,39
 896 739 896 739 819 850.5 c 128,-1,40
 742 962 742 962 593.5 962 c 128,-1,41
 445 962 445 962 366.5 847 c 128,-1,42
 288 732 288 732 288 549 c 128,-1,43
 288 366 288 366 367 251 c 128,-1,36
 446 136 446 136 592 136 c 128,-1,37
1107 640 m 1,44,-1
 1627 640 l 1,45,-1
 1627 652 l 1,46,47
 1625 806 1625 806 1562 884.5 c 128,-1,48
 1499 963 1499 963 1386 963 c 128,-1,49
 1273 963 1273 963 1196 880.5 c 128,-1,50
 1119 798 1119 798 1107 640 c 1,44,-1
EndSplineSet
EndChar

StartChar: florin
Encoding: 402 402 305
Width: 1019
GlyphClass: 2
Flags: HW
LayerCount: 2
Fore
SplineSet
144 -346 m 0,0,1
 94 -346 94 -346 31 -325 c 1,2,-1
 45 -156 l 1,3,4
 104 -178 104 -178 131 -178 c 128,-1,5
 158 -178 158 -178 182 -162.5 c 0,6,7
 206 -148 206 -148 222 -118 c 0,8,9
 251 -66 251 -66 279.5 52.5 c 128,-1,10
 308 171 308 171 364 484.5 c 128,-1,11
 420 798 420 798 428 841 c 1,12,-1
 270 841 l 1,13,-1
 281 990 l 1,14,-1
 457 990 l 1,15,-1
 477 1135 l 1,16,17
 531 1504 531 1504 820 1504 c 0,18,19
 881 1504 881 1504 966 1481 c 1,20,-1
 955 1301 l 1,21,22
 887 1330 887 1330 829.5 1330 c 128,-1,23
 772 1330 772 1330 740.5 1294 c 128,-1,24
 709 1258 709 1258 696 1178 c 1,25,-1
 660 990 l 1,26,-1
 850 990 l 1,27,-1
 840 840 l 1,28,-1
 634 840 l 1,29,-1
 501 129 l 2,30,31
 465 -65 465 -65 420 -157 c 0,32,33
 374 -250 374 -250 314 -294 c 0,34,35
 242 -346 242 -346 144 -346 c 0,0,1
EndSplineSet
EndChar

StartChar: uni0237
Encoding: 567 567 348
Width: 488
GlyphClass: 2
Flags: HW
LayerCount: 2
Fore
SplineSet
-46 -428 m 1,0,-1
 -59 -252 l 1,1,-1
 -16 -252 l 2,2,3
 96 -252 96 -252 129 -216 c 0,4,5
 156 -186 156 -186 161 -151 c 0,6,7
 168 -103 168 -103 168 -27 c 2,8,-1
 168 1093 l 1,9,-1
 373 1093 l 1,10,-1
 373 -11 l 2,11,12
 373 -127 373 -127 357.5 -201 c 0,13,14
 342 -274 342 -274 301 -328 c 0,15,16
 225 -428 225 -428 0 -428 c 2,17,-1
 -46 -428 l 1,0,-1
EndSplineSet
EndChar

StartChar: circumflex
Encoding: 710 710 349
Width: 786
GlyphClass: 2
Flags: HW
LayerCount: 2
Fore
SplineSet
75 1203 m 1,0,-1
 296 1589 l 1,1,-1
 506 1589 l 1,2,-1
 728 1203 l 1,3,-1
 567 1203 l 1,4,-1
 399 1447 l 1,5,-1
 232 1203 l 1,6,-1
 75 1203 l 1,0,-1
EndSplineSet
EndChar

StartChar: caron
Encoding: 711 711 350
Width: 785
GlyphClass: 2
Flags: HW
LayerCount: 2
Fore
SplineSet
299 1220 m 1,0,-1
 71 1589 l 1,1,-1
 239 1589 l 1,2,-1
 399 1339 l 1,3,-1
 562 1589 l 1,4,-1
 733 1589 l 1,5,-1
 506 1220 l 1,6,-1
 299 1220 l 1,0,-1
EndSplineSet
EndChar

StartChar: breve
Encoding: 728 728 351
Width: 730
GlyphClass: 2
Flags: HW
LayerCount: 2
Fore
SplineSet
559 1327 m 128,-1,1
 481 1261 481 1261 363.5 1261 c 128,-1,2
 246 1261 246 1261 169 1327 c 128,-1,3
 92 1393 92 1393 92 1516 c 1,4,-1
 236 1516 l 1,5,6
 236 1399 236 1399 364.5 1399 c 128,-1,7
 493 1399 493 1399 493 1516 c 1,8,-1
 637 1516 l 1,9,0
 637 1393 637 1393 559 1327 c 128,-1,1
EndSplineSet
EndChar

StartChar: ogonek
Encoding: 731 731 354
Width: 583
GlyphClass: 2
Flags: HW
LayerCount: 2
Fore
SplineSet
492 -370 m 1,0,1
 409 -404 409 -404 318.5 -404 c 128,-1,2
 228 -404 228 -404 172 -359 c 128,-1,3
 116 -314 116 -314 116 -230 c 0,4,5
 116 -89 116 -89 307 20 c 1,6,-1
 417 20 l 1,7,8
 268 -89 268 -89 268 -188 c 0,9,10
 268 -223 268 -223 293 -249.5 c 128,-1,11
 318 -276 318 -276 363.5 -276 c 128,-1,12
 409 -276 409 -276 492 -240 c 1,13,-1
 492 -370 l 1,0,1
EndSplineSet
EndChar

StartChar: hungarumlaut
Encoding: 733 733 356
Width: 906
GlyphClass: 2
Flags: HW
LayerCount: 2
Fore
SplineSet
140 1203 m 1,0,-1
 364 1552 l 1,1,-1
 556 1552 l 1,2,-1
 258 1203 l 1,3,-1
 140 1203 l 1,0,-1
415 1203 m 1,4,-1
 641 1552 l 1,5,-1
 831 1552 l 1,6,-1
 534 1203 l 1,7,-1
 415 1203 l 1,4,-1
EndSplineSet
EndChar

StartChar: uni0307
Encoding: 775 775 357
Width: 467
GlyphClass: 2
Flags: HW
LayerCount: 2
Fore
SplineSet
141 1257 m 1,0,-1
 141 1465 l 1,1,-1
 327 1465 l 1,2,-1
 327 1257 l 1,3,-1
 141 1257 l 1,0,-1
EndSplineSet
EndChar

StartChar: uni030F
Encoding: 783 783 358
Width: 923
GlyphClass: 2
Flags: HW
LayerCount: 2
Fore
SplineSet
336 1225 m 1,0,-1
 51 1563 l 1,1,-1
 268 1563 l 1,2,-1
 475 1225 l 1,3,-1
 336 1225 l 1,0,-1
655 1225 m 1,4,-1
 382 1563 l 1,5,-1
 590 1563 l 1,6,-1
 804 1225 l 1,7,-1
 655 1225 l 1,4,-1
EndSplineSet
EndChar

StartChar: uni0311
Encoding: 785 785 359
Width: 738
GlyphClass: 2
Flags: HW
LayerCount: 2
Fore
SplineSet
96 1261 m 1,0,1
 96 1378 96 1378 177 1443.5 c 128,-1,2
 258 1509 258 1509 368 1509 c 128,-1,3
 478 1509 478 1509 559 1444 c 128,-1,4
 640 1379 640 1379 640 1261 c 1,5,-1
 496 1261 l 1,6,7
 496 1321 496 1321 458 1352.5 c 128,-1,8
 420 1384 420 1384 366 1384 c 0,9,10
 312 1384 312 1384 275.5 1352.5 c 128,-1,11
 239 1321 239 1321 239 1261 c 1,12,-1
 96 1261 l 1,0,1
EndSplineSet
EndChar

StartChar: uni0326
Encoding: 806 806 360
Width: 596
GlyphClass: 2
Flags: HW
LayerCount: 2
Fore
SplineSet
125 -664 m 1,0,-1
 228 -156 l 1,1,-1
 425 -156 l 1,2,-1
 269 -664 l 1,3,-1
 125 -664 l 1,0,-1
EndSplineSet
EndChar

StartChar: pi
Encoding: 960 960 361
Width: 1437
GlyphClass: 2
Flags: HW
LayerCount: 2
Fore
SplineSet
1157 -8 m 0,0,1
 1037 -8 1037 -8 991 68.5 c 128,-1,2
 945 145 945 145 945 307 c 2,3,-1
 947 951 l 1,4,-1
 568 951 l 1,5,6
 538 213 538 213 426 0 c 1,7,-1
 242 0 l 1,8,9
 288 92 288 92 320 298 c 0,10,11
 373 632 373 632 380 953 c 1,12,13
 232 948 232 948 126 882 c 1,14,-1
 105 1042 l 1,15,16
 158 1086 158 1086 233.5 1099.5 c 128,-1,17
 309 1113 309 1113 446 1113 c 2,18,-1
 1309 1113 l 1,19,-1
 1309 949 l 1,20,-1
 1120 949 l 1,21,-1
 1120 317 l 2,22,23
 1120 232 1120 232 1134 212 c 0,24,25
 1168 181 1168 181 1192 177 c 1,26,27
 1225 177 1225 177 1290 196 c 1,28,-1
 1282 6 l 1,29,30
 1203 -8 1203 -8 1157 -8 c 0,0,1
EndSplineSet
EndChar

StartChar: endash
Encoding: 8211 8211 384
Width: 1292
GlyphClass: 2
Flags: HW
LayerCount: 2
Fore
SplineSet
112 491 m 1,0,-1
 112 659 l 1,1,-1
 1187 659 l 1,2,-1
 1187 491 l 1,3,-1
 112 491 l 1,0,-1
EndSplineSet
EndChar

StartChar: emdash
Encoding: 8212 8212 385
Width: 2278
GlyphClass: 2
Flags: HW
LayerCount: 2
Fore
SplineSet
80 491 m 1,0,-1
 80 659 l 1,1,-1
 2199 659 l 1,2,-1
 2199 491 l 1,3,-1
 80 491 l 1,0,-1
EndSplineSet
EndChar

StartChar: quoteleft
Encoding: 8216 8216 386
Width: 474
GlyphClass: 2
Flags: HW
LayerCount: 2
Fore
SplineSet
91 1256 m 1,0,-1
 268 1537 l 1,1,-1
 384 1335 l 1,2,-1
 255 1054 l 1,3,-1
 91 1256 l 1,0,-1
EndSplineSet
EndChar

StartChar: quoteright
Encoding: 8217 8217 387
Width: 470
GlyphClass: 2
Flags: HW
LayerCount: 2
Fore
SplineSet
94 1054 m 1,0,-1
 195 1537 l 1,1,-1
 385 1537 l 1,2,-1
 237 1054 l 1,3,-1
 94 1054 l 1,0,-1
EndSplineSet
EndChar

StartChar: quotesinglbase
Encoding: 8218 8218 388
Width: 533
GlyphClass: 2
Flags: HW
LayerCount: 2
Fore
SplineSet
121 -269 m 1,0,-1
 221 214 l 1,1,-1
 414 214 l 1,2,-1
 266 -269 l 1,3,-1
 121 -269 l 1,0,-1
EndSplineSet
EndChar

StartChar: quotedblleft
Encoding: 8220 8220 389
Width: 776
GlyphClass: 2
Flags: HW
LayerCount: 2
Fore
SplineSet
91 1256 m 1,0,-1
 267 1537 l 1,1,-1
 380 1335 l 1,2,-1
 254 1054 l 1,3,-1
 91 1256 l 1,0,-1
399 1256 m 1,4,-1
 571 1537 l 1,5,-1
 686 1335 l 1,6,-1
 557 1054 l 1,7,-1
 399 1256 l 1,4,-1
EndSplineSet
EndChar

StartChar: quotedblright
Encoding: 8221 8221 390
Width: 880
GlyphClass: 2
Flags: HW
LayerCount: 2
Fore
SplineSet
156 1054 m 1,0,-1
 257 1537 l 1,1,-1
 444 1537 l 1,2,-1
 302 1054 l 1,3,-1
 156 1054 l 1,0,-1
450 1054 m 1,4,-1
 546 1537 l 1,5,-1
 739 1537 l 1,6,-1
 590 1054 l 1,7,-1
 450 1054 l 1,4,-1
EndSplineSet
EndChar

StartChar: quotedblbase
Encoding: 8222 8222 391
Width: 919
GlyphClass: 2
Flags: HW
LayerCount: 2
Fore
SplineSet
143 -269 m 1,0,-1
 244 214 l 1,1,-1
 443 214 l 1,2,-1
 291 -269 l 1,3,-1
 143 -269 l 1,0,-1
479 -269 m 1,4,-1
 584 214 l 1,5,-1
 780 214 l 1,6,-1
 630 -269 l 1,7,-1
 479 -269 l 1,4,-1
EndSplineSet
EndChar

StartChar: dagger
Encoding: 8224 8224 392
Width: 931
GlyphClass: 2
Flags: HW
LayerCount: 2
Fore
SplineSet
377 118 m 1,0,-1
 377 1005 l 1,1,-1
 69 1005 l 1,2,-1
 69 1144 l 1,3,-1
 377 1144 l 1,4,-1
 377 1521 l 1,5,-1
 544 1521 l 1,6,-1
 544 1144 l 1,7,-1
 865 1144 l 1,8,-1
 865 1005 l 1,9,-1
 538 1005 l 1,10,-1
 538 118 l 1,11,-1
 377 118 l 1,0,-1
EndSplineSet
EndChar

StartChar: daggerdbl
Encoding: 8225 8225 393
Width: 975
GlyphClass: 2
Flags: HW
LayerCount: 2
Fore
SplineSet
407 36 m 1,0,-1
 407 413 l 1,1,-1
 117 413 l 1,2,-1
 117 564 l 1,3,-1
 407 564 l 1,4,-1
 407 1006 l 1,5,-1
 121 1006 l 1,6,-1
 121 1158 l 1,7,-1
 407 1158 l 1,8,-1
 407 1510 l 1,9,-1
 575 1510 l 1,10,-1
 575 1158 l 1,11,-1
 865 1158 l 1,12,-1
 865 1006 l 1,13,-1
 575 1006 l 1,14,-1
 575 564 l 1,15,-1
 860 564 l 1,16,-1
 860 413 l 1,17,-1
 575 413 l 1,18,-1
 575 36 l 1,19,-1
 407 36 l 1,0,-1
EndSplineSet
EndChar

StartChar: bullet
Encoding: 8226 8226 394
Width: 936
GlyphClass: 2
Flags: HW
LayerCount: 2
Fore
SplineSet
702 482 m 128,-1,1
 606 383 606 383 466.5 383 c 128,-1,2
 327 383 327 383 233.5 480 c 128,-1,3
 140 577 140 577 140 718.5 c 128,-1,4
 140 860 140 860 237.5 959.5 c 128,-1,5
 335 1059 335 1059 472.5 1059 c 128,-1,6
 610 1059 610 1059 704 962 c 128,-1,7
 798 865 798 865 798 723 c 128,-1,0
 798 581 798 581 702 482 c 128,-1,1
EndSplineSet
EndChar

StartChar: guilsinglleft
Encoding: 8249 8249 395
Width: 601
GlyphClass: 2
Flags: HW
LayerCount: 2
Fore
SplineSet
337 178 m 1,0,-1
 85 575 l 1,1,-1
 342 973 l 1,2,-1
 516 973 l 1,3,-1
 268 575 l 1,4,-1
 510 178 l 1,5,-1
 337 178 l 1,0,-1
EndSplineSet
EndChar

StartChar: guilsinglright
Encoding: 8250 8250 396
Width: 599
GlyphClass: 2
Flags: HW
LayerCount: 2
Fore
SplineSet
87 178 m 1,0,-1
 334 577 l 1,1,-1
 94 973 l 1,2,-1
 266 973 l 1,3,-1
 519 577 l 1,4,-1
 260 178 l 1,5,-1
 87 178 l 1,0,-1
EndSplineSet
EndChar

StartChar: fraction
Encoding: 8260 8260 397
Width: 1158
GlyphClass: 2
Flags: HW
LayerCount: 2
Fore
SplineSet
50 0 m 1,0,-1
 938 1506 l 1,1,-1
 1104 1506 l 1,2,-1
 217 0 l 1,3,-1
 50 0 l 1,0,-1
EndSplineSet
EndChar

StartChar: uni2074
Encoding: 8308 8308 398
Width: 816
GlyphClass: 2
Flags: HW
LayerCount: 2
Fore
SplineSet
430 642 m 1,0,-1
 430 830 l 1,1,-1
 88 830 l 1,2,-1
 88 940 l 1,3,-1
 425 1480 l 1,4,-1
 566 1480 l 1,5,-1
 566 965 l 1,6,-1
 664 965 l 1,7,-1
 676 830 l 1,8,-1
 564 830 l 1,9,-1
 564 642 l 1,10,-1
 430 642 l 1,0,-1
251 965 m 1,11,-1
 428 965 l 1,12,13
 428 1246 428 1246 429 1263 c 1,14,-1
 251 965 l 1,11,-1
EndSplineSet
EndChar

StartChar: Euro
Encoding: 8364 8364 399
Width: 1210
GlyphClass: 2
Flags: HW
LayerCount: 2
Fore
SplineSet
417 827 m 1,0,1
 414 788 414 788 414 706 c 1,2,-1
 413 674 l 1,3,-1
 969 674 l 1,4,-1
 953 545 l 1,5,-1
 434 545 l 1,6,7
 460 370 460 370 555.5 262.5 c 128,-1,8
 651 155 651 155 804.5 155 c 128,-1,9
 958 155 958 155 1102 271 c 1,10,-1
 1101 78 l 1,11,12
 961 -21 961 -21 777 -21 c 0,13,14
 487 -21 487 -21 336 222 c 0,15,16
 251 359 251 359 222 545 c 1,17,-1
 92 545 l 1,18,-1
 113 674 l 1,19,-1
 205 674 l 1,20,-1
 205 731 l 2,21,22
 205 760 205 760 208 826 c 1,23,-1
 90 826 l 1,24,-1
 114 957 l 1,25,-1
 228 957 l 1,26,27
 270 1193 270 1193 408 1341 c 0,28,29
 553 1497 553 1497 798 1497 c 0,30,31
 992 1497 992 1497 1111 1385 c 1,32,-1
 1085 1197 l 1,33,34
 978 1332 978 1332 820 1332 c 128,-1,35
 662 1332 662 1332 563 1230.5 c 128,-1,36
 464 1129 464 1129 439 957 c 1,37,-1
 1002 957 l 1,38,-1
 981 827 l 1,39,-1
 417 827 l 1,0,1
EndSplineSet
EndChar

StartChar: trademark
Encoding: 8482 8482 400
Width: 1817
GlyphClass: 2
Flags: HW
LayerCount: 2
Fore
SplineSet
823 640 m 1,0,-1
 823 1482 l 1,1,-1
 1012 1482 l 1,2,-1
 1253 877 l 1,3,-1
 1505 1482 l 1,4,-1
 1682 1482 l 1,5,-1
 1682 640 l 1,6,-1
 1543 640 l 1,7,-1
 1543 1277 l 1,8,-1
 1294 682 l 1,9,-1
 1198 682 l 1,10,-1
 963 1274 l 1,11,-1
 963 640 l 1,12,-1
 823 640 l 1,0,-1
334 640 m 1,13,-1
 334 1356 l 1,14,-1
 80 1356 l 1,15,-1
 79 1482 l 1,16,-1
 731 1482 l 1,17,-1
 731 1356 l 1,18,-1
 477 1356 l 1,19,-1
 477 640 l 1,20,-1
 334 640 l 1,13,-1
EndSplineSet
EndChar

StartChar: partialdiff
Encoding: 8706 8706 401
Width: 1190
GlyphClass: 2
Flags: HW
LayerCount: 2
Fore
SplineSet
496 -26 m 1,0,1
 370 -26 370 -26 277 38 c 0,2,3
 98 160 98 160 98 447 c 0,4,5
 98 615 98 615 159.5 754.5 c 128,-1,6
 221 894 221 894 336 977.5 c 128,-1,7
 451 1061 451 1061 597 1061 c 0,8,9
 694 1061 694 1061 772.5 1016.5 c 128,-1,10
 851 972 851 972 892 909 c 1,11,-1
 892 966 l 1,12,13
 890 1187 890 1187 811 1315 c 128,-1,14
 732 1443 732 1443 589.5 1443 c 128,-1,15
 447 1443 447 1443 294 1334 c 1,16,-1
 280 1506 l 1,17,18
 439 1608 439 1608 602 1608 c 0,19,20
 844 1608 844 1608 959.5 1422 c 128,-1,21
 1075 1236 1075 1236 1075 892 c 0,22,23
 1075 604 1075 604 990 378 c 0,24,25
 839 -26 839 -26 496 -26 c 1,0,1
507 140 m 0,26,27
 586 140 586 140 652.5 186 c 128,-1,28
 719 232 719 232 764 311 c 0,29,30
 855 470 855 470 877 688 c 1,31,32
 848 780 848 780 783 839 c 128,-1,33
 718 898 718 898 620.5 898 c 128,-1,34
 523 898 523 898 443.5 834.5 c 128,-1,35
 364 771 364 771 321 668 c 128,-1,36
 278 565 278 565 278 436 c 128,-1,37
 278 307 278 307 338.5 223.5 c 128,-1,38
 399 140 399 140 507 140 c 0,26,27
EndSplineSet
EndChar

StartChar: uni2206
Encoding: 8710 8710 402
Width: 1305
GlyphClass: 2
Flags: HW
LayerCount: 2
Fore
SplineSet
91 90 m 1,0,-1
 90 195 l 1,1,-1
 573 1516 l 1,2,-1
 741 1516 l 1,3,-1
 1222 195 l 1,4,-1
 1221 90 l 1,5,-1
 91 90 l 1,0,-1
282 257 m 1,6,-1
 1030 257 l 1,7,-1
 655 1304 l 1,8,-1
 282 257 l 1,6,-1
EndSplineSet
EndChar

StartChar: product
Encoding: 8719 8719 403
Width: 1499
GlyphClass: 2
Flags: HW
LayerCount: 2
Fore
SplineSet
186 -133 m 1,0,-1
 186 1471 l 1,1,-1
 1322 1471 l 1,2,-1
 1322 -133 l 1,3,-1
 1122 -133 l 1,4,-1
 1122 1296 l 1,5,-1
 385 1296 l 1,6,-1
 385 -133 l 1,7,-1
 186 -133 l 1,0,-1
EndSplineSet
EndChar

StartChar: summation
Encoding: 8721 8721 404
Width: 1277
GlyphClass: 2
Flags: HW
LayerCount: 2
Fore
SplineSet
70 -345 m 1,0,-1
 70 -235 l 1,1,-1
 685 580 l 1,2,-1
 91 1378 l 1,3,-1
 91 1492 l 1,4,-1
 1173 1492 l 1,5,-1
 1173 1319 l 1,6,-1
 352 1319 l 1,7,-1
 917 588 l 1,8,-1
 325 -165 l 1,9,-1
 1214 -165 l 1,10,-1
 1214 -345 l 1,11,-1
 70 -345 l 1,0,-1
EndSplineSet
EndChar

StartChar: radical
Encoding: 8730 8730 405
Width: 1255
GlyphClass: 2
Flags: HW
LayerCount: 2
Fore
SplineSet
581 -160 m 1,0,-1
 255 710 l 1,1,-1
 94 681 l 1,2,-1
 72 821 l 1,3,-1
 365 879 l 1,4,-1
 600 233 l 1,5,-1
 645 92 l 1,6,7
 692 289 692 289 1037 1673 c 1,8,-1
 1184 1673 l 1,9,-1
 732 -160 l 1,10,-1
 581 -160 l 1,0,-1
EndSplineSet
EndChar

StartChar: infinity
Encoding: 8734 8734 406
Width: 1748
GlyphClass: 2
Flags: HW
LayerCount: 2
Fore
SplineSet
480 247 m 0,0,1
 317 247 317 247 217 363 c 128,-1,2
 117 479 117 479 117 640.5 c 128,-1,3
 117 802 117 802 221.5 903.5 c 128,-1,4
 326 1005 326 1005 488 1005 c 0,5,6
 604 1005 604 1005 695.5 937 c 128,-1,7
 787 869 787 869 877 747 c 1,8,9
 966 870 966 870 1058.5 938 c 128,-1,10
 1151 1006 1151 1006 1274 1006 c 0,11,12
 1440 1006 1440 1006 1536.5 903 c 128,-1,13
 1633 800 1633 800 1633 632.5 c 128,-1,14
 1633 465 1633 465 1530 356 c 128,-1,15
 1427 247 1427 247 1272 247 c 0,16,17
 1124 248 1124 248 996 368 c 0,18,19
 940 422 940 422 877 505 c 1,20,21
 730 310 730 310 599 266 c 0,22,23
 542 246 542 246 480 247 c 0,0,1
1117 452 m 128,-1,25
 1187 395 1187 395 1259.5 395 c 128,-1,26
 1332 395 1332 395 1373.5 417.5 c 0,27,28
 1416 440 1416 440 1438 478 c 0,29,30
 1482 552 1482 552 1481 645 c 0,31,32
 1482 743 1482 743 1422 803 c 0,33,34
 1364 862 1364 862 1272.5 862 c 128,-1,35
 1181 862 1181 862 1106 798 c 128,-1,36
 1031 734 1031 734 961 629 c 1,37,24
 1047 509 1047 509 1117 452 c 128,-1,25
481 395 m 0,38,39
 637 395 637 395 794 626 c 1,40,41
 723 736 723 736 646.5 799 c 128,-1,42
 570 862 570 862 472 862 c 128,-1,43
 374 862 374 862 316 795.5 c 128,-1,44
 258 729 258 729 258 631 c 128,-1,45
 258 533 258 533 320.5 464 c 128,-1,46
 383 395 383 395 481 395 c 0,38,39
EndSplineSet
EndChar

StartChar: integral
Encoding: 8747 8747 407
Width: 732
GlyphClass: 2
Flags: HW
LayerCount: 2
Fore
SplineSet
210 -417 m 0,0,1
 158 -417 158 -417 72 -393 c 1,2,-1
 71 -231 l 1,3,4
 83 -236 83 -236 121 -244 c 128,-1,5
 159 -252 159 -252 183 -252 c 0,6,7
 265 -252 265 -252 292.5 -202.5 c 128,-1,8
 320 -153 320 -153 320 -39 c 2,9,-1
 320 1309 l 2,10,11
 320 1710 320 1710 625 1710 c 0,12,13
 684 1710 684 1710 762 1685 c 1,14,-1
 764 1522 l 1,15,16
 752 1528 752 1528 713 1536 c 128,-1,17
 674 1544 674 1544 650 1544 c 0,18,19
 567 1544 567 1544 539 1495.5 c 128,-1,20
 511 1447 511 1447 511 1333 c 2,21,-1
 511 -16 l 2,22,23
 511 -417 511 -417 210 -417 c 0,0,1
EndSplineSet
EndChar

StartChar: approxequal
Encoding: 8776 8776 408
Width: 1313
GlyphClass: 2
Flags: HW
LayerCount: 2
Fore
SplineSet
231 184 m 1,0,-1
 136 267 l 1,1,2
 168 381 168 381 240.5 445.5 c 128,-1,3
 313 510 313 510 422.5 510 c 128,-1,4
 532 510 532 510 690 431 c 1,5,6
 860 358 860 358 901 354 c 1,7,8
 964 354 964 354 1012 392 c 128,-1,9
 1060 430 1060 430 1109 512 c 1,10,-1
 1198 434 l 1,11,12
 1165 326 1165 326 1086.5 259 c 128,-1,13
 1008 192 1008 192 892 192 c 0,14,15
 783 192 783 192 641 270.5 c 128,-1,16
 499 349 499 349 422 349 c 0,17,18
 292 349 292 349 231 184 c 1,0,-1
231 594 m 1,19,-1
 135 674 l 1,20,21
 167 787 167 787 240 852 c 128,-1,22
 313 917 313 917 424 917 c 128,-1,23
 535 917 535 917 680 839 c 128,-1,24
 825 761 825 761 894 761 c 128,-1,25
 963 761 963 761 1011 799 c 128,-1,26
 1059 837 1059 837 1107 919 c 1,27,-1
 1197 842 l 1,28,29
 1164 735 1164 735 1084.5 667.5 c 128,-1,30
 1005 600 1005 600 890 600 c 0,31,32
 824 600 824 600 762.5 622 c 128,-1,33
 701 644 701 644 599.5 700.5 c 128,-1,34
 498 757 498 757 420 757 c 0,35,36
 288 757 288 757 231 594 c 1,19,-1
EndSplineSet
EndChar

StartChar: notequal
Encoding: 8800 8800 409
Width: 1257
GlyphClass: 2
Flags: HW
LayerCount: 2
Fore
SplineSet
422 46 m 1,0,-1
 282 68 l 1,1,-1
 403 331 l 1,2,-1
 139 331 l 1,3,-1
 130 479 l 1,4,-1
 477 479 l 1,5,-1
 612 751 l 1,6,-1
 139 751 l 1,7,-1
 128 902 l 1,8,-1
 681 902 l 1,9,-1
 820 1178 l 1,10,11
 961 1158 961 1158 962 1158 c 2,12,-1
 844 902 l 1,13,-1
 1123 902 l 1,14,-1
 1135 750 l 1,15,-1
 774 750 l 1,16,-1
 635 479 l 1,17,-1
 1125 479 l 1,18,-1
 1135 331 l 1,19,-1
 564 331 l 1,20,-1
 422 46 l 1,0,-1
EndSplineSet
EndChar

StartChar: lessequal
Encoding: 8804 8804 410
Width: 1205
GlyphClass: 2
Flags: HW
LayerCount: 2
Fore
SplineSet
1063 228 m 1,0,-1
 139 699 l 1,1,-1
 139 803 l 1,2,-1
 1063 1291 l 1,3,-1
 1063 1120 l 1,4,-1
 339 754 l 1,5,-1
 1063 400 l 1,6,-1
 1063 228 l 1,0,-1
121 5 m 1,7,-1
 121 149 l 1,8,-1
 1078 150 l 1,9,-1
 1078 5 l 1,10,-1
 121 5 l 1,7,-1
EndSplineSet
EndChar

StartChar: greaterequal
Encoding: 8805 8805 411
Width: 1205
GlyphClass: 2
Flags: HW
LayerCount: 2
Fore
SplineSet
149 229 m 1,0,-1
 149 401 l 1,1,-1
 877 752 l 1,2,-1
 151 1121 l 1,3,-1
 151 1292 l 1,4,-1
 1078 803 l 1,5,-1
 1078 701 l 1,6,-1
 149 229 l 1,0,-1
133 5 m 1,7,-1
 133 150 l 1,8,-1
 1088 149 l 1,9,-1
 1088 5 l 1,10,-1
 133 5 l 1,7,-1
EndSplineSet
EndChar

StartChar: lozenge
Encoding: 9674 9674 412
Width: 1188
GlyphClass: 2
Flags: HW
LayerCount: 2
Fore
SplineSet
531 -47 m 1,0,-1
 93 745 l 1,1,-1
 538 1541 l 1,2,-1
 659 1541 l 1,3,-1
 1098 747 l 1,4,-1
 650 -47 l 1,5,-1
 531 -47 l 1,0,-1
601 1361 m 1,6,-1
 260 747 l 1,7,8
 298 678 298 678 364 552 c 0,9,10
 508 279 508 279 590 129 c 1,11,-1
 931 746 l 1,12,13
 709 1154 709 1154 601 1361 c 1,6,-1
EndSplineSet
EndChar

StartChar: uniFB01
Encoding: 64257 64257 413
Width: 1139
GlyphClass: 3
Flags: HW
LayerCount: 2
Fore
SplineSet
182 0 m 1,0,-1
 182 959 l 1,1,-1
 15 959 l 1,2,-1
 15 1098 l 1,3,-1
 182 1098 l 1,4,-1
 182 1134 l 1,5,6
 184 1251 184 1251 199.5 1323.5 c 128,-1,7
 215 1396 215 1396 257.5 1447 c 128,-1,8
 300 1498 300 1498 372 1519 c 128,-1,9
 444 1540 444 1540 560 1540 c 2,10,-1
 630 1540 l 1,11,-1
 651 1379 l 1,12,-1
 569 1379 l 2,13,14
 489 1379 489 1379 462.5 1362 c 128,-1,15
 436 1345 436 1345 424.5 1329 c 128,-1,16
 413 1313 413 1313 407 1285 c 0,17,18
 397 1238 397 1238 397 1152 c 2,19,-1
 397 1098 l 1,20,-1
 1014 1098 l 1,21,-1
 1014 0 l 1,22,-1
 799 0 l 1,23,-1
 799 959 l 1,24,-1
 397 959 l 1,25,-1
 397 0 l 1,26,-1
 182 0 l 1,0,-1
799 1277 m 1,27,-1
 799 1489 l 1,28,-1
 1014 1489 l 1,29,-1
 1014 1277 l 1,30,-1
 799 1277 l 1,27,-1
EndSplineSet
Ligature2: "'liga' Standard Ligatures lookup 0 subtable" f i
EndChar

StartChar: uniFB02
Encoding: 64258 64258 414
Width: 1322
GlyphClass: 3
Flags: HW
LayerCount: 2
Fore
SplineSet
1304 1 m 1,0,1
 1198 -12 1198 -12 1156 -12 c 128,-1,2
 1114 -12 1114 -12 1071 -5 c 128,-1,3
 1028 2 1028 2 995 18.5 c 128,-1,4
 962 35 962 35 938 55.5 c 128,-1,5
 914 76 914 76 897.5 109 c 128,-1,6
 881 142 881 142 871 176 c 0,7,8
 862 210 862 210 856 260 c 0,9,10
 846 347 846 347 846 474 c 2,11,-1
 846 1355 l 1,12,13
 673 1366 673 1366 607 1366 c 0,14,15
 488 1366 488 1366 444 1319.5 c 128,-1,16
 400 1273 400 1273 397 1152 c 1,17,-1
 397 1098 l 1,18,-1
 639 1098 l 1,19,-1
 639 959 l 1,20,-1
 397 959 l 1,21,-1
 397 0 l 1,22,-1
 182 0 l 1,23,-1
 182 959 l 1,24,-1
 15 959 l 1,25,-1
 15 1098 l 1,26,-1
 182 1098 l 1,27,-1
 182 1136 l 1,28,29
 186 1347 186 1347 281.5 1437 c 128,-1,30
 377 1527 377 1527 581 1527 c 0,31,32
 636 1527 636 1527 795 1513 c 128,-1,33
 954 1499 954 1499 1061 1493 c 1,34,-1
 1061 436 l 2,35,36
 1061 277 1061 277 1072 248.5 c 128,-1,37
 1083 220 1083 220 1094.5 201.5 c 0,38,39
 1106 182 1106 182 1124 174 c 0,40,41
 1175 157 1175 157 1196 156 c 1,42,43
 1231 156 1231 156 1293 160 c 1,44,-1
 1304 1 l 1,0,1
EndSplineSet
Ligature2: "'liga' Standard Ligatures lookup 0 subtable" f l
EndChar

StartChar: uniFB00
Encoding: 64256 64256 415
Width: 1409
GlyphClass: 3
Flags: HW
LayerCount: 2
Fore
SplineSet
207 0 m 1,0,-1
 207 947 l 1,1,-1
 31 947 l 1,2,-1
 47 1081 l 1,3,-1
 207 1098 l 1,4,-1
 207 1153 l 1,5,6
 208 1360 208 1360 288 1455.5 c 128,-1,7
 368 1551 368 1551 556 1551 c 0,8,9
 635 1551 635 1551 742 1534 c 1,10,-1
 724 1368 l 1,11,12
 632 1380 632 1380 592 1380 c 0,13,14
 499 1380 499 1380 462 1330.5 c 128,-1,15
 425 1281 425 1281 425 1162 c 2,16,-1
 425 1098 l 1,17,-1
 907 1098 l 1,18,-1
 907 1153 l 1,19,20
 908 1360 908 1360 988 1455.5 c 128,-1,21
 1068 1551 1068 1551 1256 1551 c 0,22,23
 1336 1551 1336 1551 1441 1534 c 1,24,-1
 1424 1368 l 1,25,26
 1330 1380 1330 1380 1292 1380 c 0,27,28
 1198 1380 1198 1380 1161.5 1330.5 c 128,-1,29
 1125 1281 1125 1281 1125 1162 c 2,30,-1
 1125 1098 l 1,31,-1
 1385 1098 l 1,32,-1
 1385 947 l 1,33,-1
 1125 947 l 1,34,-1
 1125 0 l 1,35,-1
 907 0 l 1,36,-1
 907 947 l 1,37,-1
 425 947 l 1,38,-1
 425 0 l 1,39,-1
 207 0 l 1,0,-1
EndSplineSet
Ligature2: "'liga' Standard Ligatures lookup 0 subtable" f f
EndChar

StartChar: fj
Encoding: 65539 -1 416
Width: 1281
GlyphClass: 3
Flags: HW
LayerCount: 2
Fore
SplineSet
955 1277 m 1,0,-1
 955 1489 l 1,1,-1
 1174 1489 l 1,2,-1
 1174 1277 l 1,3,-1
 955 1277 l 1,0,-1
207 0 m 1,4,-1
 207 947 l 1,5,-1
 31 947 l 1,6,-1
 47 1081 l 1,7,-1
 207 1098 l 1,8,-1
 207 1153 l 1,9,10
 208 1360 208 1360 288 1455.5 c 128,-1,11
 368 1551 368 1551 556 1551 c 0,12,13
 635 1551 635 1551 742 1534 c 1,14,-1
 724 1368 l 1,15,16
 632 1380 632 1380 592 1380 c 0,17,18
 499 1380 499 1380 462 1330.5 c 128,-1,19
 425 1281 425 1281 425 1162 c 2,20,-1
 425 1098 l 1,21,-1
 1174 1098 l 1,22,-1
 1174 -50 l 2,23,24
 1174 -283 1174 -283 1103 -365 c 0,25,26
 1044 -433 1044 -433 934 -452 c 0,27,28
 876 -462 876 -462 796 -462 c 2,29,-1
 741 -462 l 1,30,-1
 715 -287 l 1,31,-1
 770 -287 l 2,32,33
 866 -287 866 -287 910 -257 c 0,34,35
 946 -232 946 -232 952 -152 c 0,36,37
 954 -120 954 -120 955 -64 c 2,38,-1
 955 947 l 1,39,-1
 425 947 l 1,40,-1
 425 0 l 1,41,-1
 207 0 l 1,4,-1
EndSplineSet
Ligature2: "'liga' Standard Ligatures lookup 0 subtable" f j
EndChar

StartChar: commaaccentcomb
Encoding: 65541 -1 418
Width: 554
GlyphClass: 2
Flags: HW
LayerCount: 2
Fore
SplineSet
144 -648 m 1,0,-1
 239 -150 l 1,1,-1
 404 -150 l 1,2,-1
 260 -648 l 1,3,-1
 144 -648 l 1,0,-1
EndSplineSet
EndChar

StartChar: middot
Encoding: 65542 -1 419
Width: 468
GlyphClass: 2
Flags: HW
LayerCount: 2
Fore
SplineSet
150 561 m 1,0,-1
 150 759 l 1,1,-1
 318 759 l 1,2,-1
 318 561 l 1,3,-1
 150 561 l 1,0,-1
EndSplineSet
EndChar

